<?xml version="1.0" encoding="UTF-8" standalone="no"?>
<!DOCTYPE svg PUBLIC "-//W3C//DTD SVG 1.1//EN" "http://www.w3.org/Graphics/SVG/1.1/DTD/svg11.dtd">
<svg width="100%" height="100%" viewBox="0 0 63 70" version="1.1" xmlns="http://www.w3.org/2000/svg" xmlns:xlink="http://www.w3.org/1999/xlink" xml:space="preserve" xmlns:serif="http://www.serif.com/" style="fill-rule:evenodd;clip-rule:evenodd;stroke-miterlimit:10;">
    <g transform="matrix(0.116587,0,0,0.116587,-18.0018,0.22272)">
        <path d="M421.2,553.2C279.9,553.2 165.4,438.7 165.4,297.4" style="fill:none;fill-rule:nonzero;stroke:rgb(181,178,28);stroke-width:18.35px;"/>
    </g>
    <g transform="matrix(0.116587,0,0,0.116587,-18.0018,0.22272)">
        <path d="M165.4,297.4C165.4,156.1 279.9,41.6 421.2,41.6" style="fill:none;fill-rule:nonzero;stroke:rgb(64,191,240);stroke-width:18.35px;"/>
        <path d="M421.2,41.6C562.4,41.6 677,156.2 677,297.4" style="fill:none;fill-rule:nonzero;stroke:rgb(232,64,141);stroke-width:18.35px;"/>
    </g>
    <g id="Sottrazione_1_2_" transform="matrix(0.116587,0,0,0.116587,-18.0018,2.22272)">
        <path d="M260.2,361.7C259.6,361.7 259,361.6 258.5,361.4L255.3,359.5L254.2,358.2C253.4,358 252.7,357.4 252.3,356.7C252,356 252,355.3 252.3,354.6C252.6,354.3 252.9,354.1 253.4,354.1C253.5,354.2 253.7,354.2 253.9,354.2C255.9,353.7 257.8,352.7 259.3,351.3L259.2,350.4C249,351.9 243.3,352.7 242.1,352.7L242,352.7C237.5,350.7 233.2,348.5 229,346C225.2,343.8 222.5,342.1 221,341C219.8,340.2 218.7,339.2 217.6,338.2C216.4,337.1 215.3,335.8 214.4,334.4C214,333.9 213.9,333.2 214.1,332.6C215.5,330.6 216.6,328.3 217.3,325.9C217.4,325.4 217.5,324.8 217.5,324.3C217,323.2 217.1,321.9 217.7,320.9C218.2,320.4 219,320 219.8,320L219.9,320L228.6,319.8L228.6,319.3L229.6,317.6L230.4,317.9L229.1,320.5C228.9,320.8 228.6,321 228.2,321L225.6,321C223.8,321 222.1,321.1 220.3,321.2C219.8,321.2 219.3,321.4 218.9,321.8C218.5,322.6 218.5,323.5 218.9,324.2C219,324.8 218.9,325.5 218.7,326.1C218,328.4 217,330.6 215.7,332.6C215.2,333.1 216.2,334.6 218.5,337.1C221.8,339.9 225.3,342.4 229.1,344.5C233.2,347 237.5,349.2 242,351.1C247.8,350.4 253.8,349.5 259.8,348.4C262.3,347.9 265,347.3 267.9,346.6C272.9,345.3 277.8,343.7 282.6,341.8C283.1,341.7 283.2,341.1 283,340C282.5,337.4 281.6,334.9 280.2,332.6C278.5,332.8 276.8,333 275.1,333C273.6,333 272.1,333.1 270.5,333.3C267.2,333.7 264,334.2 261.1,334.7L253.7,336.1C249.9,336.7 246.2,337 242.4,337.2C239.7,335.2 235.8,332.6 230.8,329.5C227.3,327.2 223.7,325.2 219.9,323.3C219.6,323.2 219.5,322.9 219.4,322.6C219.4,322.3 219.4,322 219.6,321.8C220.5,321.5 221.4,321.3 222.4,321.3L223.1,321.3C223.6,321.3 224,321.4 224,321.6L224,321.9C223.8,322.2 223.4,322.5 223,322.5L222.9,322.5C222.5,322.5 222,322.6 221.5,322.6C224.9,324.1 228.2,325.9 231.3,327.9L231.2,323.4C231.1,321.9 231.5,320.4 232.2,319.1C232.4,318.1 231.3,317.3 228.9,316.7L228.7,316.7C228.6,316.7 228.5,316.8 228.5,317L228.5,316.7C228.5,316.5 228.5,316.4 228.4,316.2C228.3,316 228.3,315.8 228.5,315.7C229.8,315.7 231,316.1 232,316.8C233.1,317.2 233.7,318.3 233.6,319.5C232.8,320.9 232.5,322.4 232.7,324L233,329.2C237.2,332 240.3,334.2 242.4,335.7C245,335.6 247.7,335.4 250.3,335L251.9,330.4C250.2,329.1 248.6,327.8 247.1,326.3L245.8,326.5C244.5,326.5 243.4,325.7 243,324.4C241.1,324.3 239.5,323.1 238.7,321.4C236.7,319.1 234.9,316.7 233.3,314.2C233,314.3 232.6,314.3 232.3,314.3C231.5,314.3 230.8,314.1 230.2,313.7C228.9,313 227.6,312 226.6,310.9L220.3,303.5C215.9,297.9 212.9,291.4 211.4,284.4C211.1,282.2 210.9,280 210.8,277.7C210.7,275.6 210.7,274.3 210.8,273.8C210.9,272.7 211.5,271.7 212.5,271.3C212.6,271.3 212.8,271.2 213,271.2C214.8,271.2 217.3,274.6 220.4,281.4C222.1,285.5 224.4,291.5 227.1,299.4C227.1,298.1 227.2,296.9 227.4,295.6C226.1,293.2 225.1,290.6 224.4,288C224.2,287.3 223.9,286.7 223.3,286.3C222.8,285.9 222.6,285.4 222.7,284.8C222.7,283.7 222.5,282.7 222.1,281.7C221.2,278.8 220.6,276.7 220,275.4C218.8,274.7 217.9,273.6 217.4,272.4C216.2,269.8 215.3,267.2 214.6,264.4C213.9,261.1 213.7,257.7 213.9,254.3C214.2,250.3 214.9,246.3 215.9,242.4C216.7,239.7 217.7,237.1 219,234.7C219.9,233 220.9,231.3 222.1,229.7C223,228.5 223.9,227.3 224.8,226.1C225.6,225 226.5,224 227.6,223.3C227.8,223.2 228.1,223.1 228.3,223.1C228.4,223.1 228.6,223.1 228.7,223.2C229.1,223.3 229.4,223.6 229.5,224C230,226.2 230.1,228.4 229.7,230.6C230.9,227.4 232.3,224.3 233.9,221.2C235.7,217.6 238.1,214.2 240.9,211.3C242.3,209.8 244,208.6 245.9,207.7C246.1,207.6 246.3,207.6 246.5,207.6C246.9,207.6 247.3,207.8 247.6,208.2C247.9,209 247.8,210 247.6,210.8C246.6,213.3 245.7,215.5 244.8,217.4L243.1,221.3C244.6,218.2 246.5,215.4 248.8,212.8C251.1,210.1 253.8,207.8 256.8,205.9C259.9,203.8 263.4,202.2 267,201.3C268.2,201 269.5,200.9 270.8,200.9C272.3,200.9 273.3,201.2 273.7,201.8C273.6,203.2 273,204.4 272.1,205.4L272.7,205.4C273.7,205.4 274.7,205.7 275.6,206.3C275.2,208.8 273.9,211.1 271.9,212.6C269.8,214.3 267.5,215.7 265,216.8L261.5,218.6C261,218.9 260.4,219.1 259.8,219.4L259.7,219.5C257.9,220.3 256.1,221.2 254,222.1L253.1,222.4L252.4,222.6C252,223.5 251.6,224.4 251.2,225.3L251.3,225.2C251.6,225 251.8,224.9 251.9,224.8L252.2,224.6L256,228C257.8,226.9 259.7,226 261.6,225.2L261,220.2L261.3,220.1C262.3,219.7 266.5,218.3 267.5,218.1L267.9,218L270.5,222.4C272.5,221.9 274.6,221.6 276.7,221.4L277.7,216.5L281.3,216.5C281.9,216.5 283.8,216.5 284.6,216.6L285,216.6L286,221.5C288.1,221.7 290.2,222 292.2,222.5L294.7,218.1L295.1,218.2C296.2,218.5 300.4,219.8 301.4,220.2L301.7,220.3L301.1,225.3C303,226.1 304.9,227.1 306.7,228.1L309.5,225.5C309.4,225.1 309.5,224.6 309.9,224.3C310.3,223.8 310.8,223.4 311.4,223.1L310.1,222.5C308.8,221.9 307.9,220.5 307.9,219.1L304.6,217.7L304.9,216.1C304.2,216.4 303.5,216.6 302.7,216.6C301.2,216.6 299.7,216 298.7,214.8C298.2,214.7 297.7,214.4 297.4,213.9C297.1,213.4 297.1,212.8 297.3,212.3C296.7,212.4 296.1,212.5 295.5,212.5C294.8,212.5 294.1,212.4 293.4,212.2C292.1,212.1 291.1,211.3 290.6,210.1C290.5,209.4 290.6,208.8 291,208.2C289.8,207.7 288.9,206.7 288.5,205.5C288.1,204.6 288.3,203.6 289.1,203C290.3,202.3 291.7,201.9 293.1,201.9L293.3,201.9C293.2,201.3 293.3,200.7 293.6,200.2C293.9,199.9 294.4,199.7 294.8,199.7L294.9,199.7C295.7,200 296.7,200.2 297.7,200.5C298.8,200.8 299.7,201.3 300.5,202.1C301,201.6 301.7,201.3 302.4,201.3C302.9,201.3 303.4,201.4 303.8,201.7C306.5,203.2 309,205.1 311,207.5C311.5,207.1 312,206.9 312.6,206.9C313.4,206.9 314,207.6 314.4,208.9L314.7,210.7C315.3,210 316.1,209.6 317,209.5C318.2,209.6 319.3,210.2 320,211.2C320.8,211.3 321.6,211.6 322.3,212.1C322.7,211.9 323.1,211.8 323.5,211.8L323.8,211.8C325.1,211.8 326.3,212.7 326.8,213.9C327.4,215.2 327.8,216.5 328,217.8C328.3,216.6 328.8,216 329.5,216C329.7,216 329.9,216 330.1,216.1C331,217.5 331.7,219 332,220.7C332.9,221.8 333.4,223.1 333.5,224.6C333.8,224.5 334.1,224.5 334.4,224.5C336.1,224.5 337.9,225.9 339.8,228.7C340,228.4 340.3,228.2 340.7,228.2C341.4,228.2 342.2,228.9 343.1,230.3C344,231.9 344.6,233.6 344.8,235.4C345,235.3 345.2,235.3 345.4,235.3C346.5,235.3 347.1,236.7 347.2,239.6C348,241.2 348.5,242.9 348.8,244.7C348.8,245.4 348.6,246.1 348.3,246.8C348.5,246.6 348.8,246.5 349.1,246.5L349.4,246.5C349.8,246.6 350.1,246.9 350.1,247.3C350.9,248.4 351.4,249.8 351.4,251.2C351.1,252.8 350.2,254.2 348.9,255.1C349.5,254.9 350.1,254.8 350.7,254.8C351.2,254.7 351.6,254.9 352,255.3C352.3,255.8 352.2,256.7 351.6,258C350.3,259.8 349.2,261.7 348.6,263.8C348.7,265.1 348.5,266.5 348,267.7C347.3,268.7 346.3,269.6 345.1,270C345.3,270.6 345.3,271.3 345,272C345.8,271.1 346.9,270.5 348.1,270.3C348.4,270.3 348.7,270.4 348.9,270.5C349.5,269.7 350.5,269.3 351.5,269.3C352.1,269.3 352.6,269.4 353.1,269.7C354.2,270.5 354.5,272.5 354,275.5C355.3,277.5 355,280.1 353.5,281.8C354.1,282.3 354.5,283.1 354.4,283.9C354.4,284.6 354.2,285.3 353.8,285.9C353.1,286.6 352.4,287.2 351.5,287.7C351.8,289.2 351.8,290.8 351.6,292.3C350.8,294.7 349.5,297 347.7,298.8C348.2,300.3 348,302 347,303.3C345.5,305.3 343.7,307.1 341.7,308.6C342.3,309.4 342.3,310.5 341.7,311.3C339.1,313.3 336,314.6 332.8,315.2C330.9,315.5 329,316.3 327.6,317.6L322.6,323.6C322.4,324.4 321.8,325.1 321,325.5C321.2,326.4 320.7,327.3 319.9,327.6C319,327.9 318.1,328.1 317.1,328.2C315.6,329.3 314.1,330.3 312.5,331.3C312.7,332.8 313.4,334.3 314.5,335.4C316.3,335.9 318.1,336.1 319.9,336.1C320.8,336.1 321.7,336 322.6,335.9C325.6,334.1 328.4,332.1 331.1,329.8C331.5,327.3 331.9,324.7 332,322.2C332,321.4 331.6,320.7 331.1,320.2C330.7,319.9 330.5,319.4 330.5,318.9C330.5,318.4 330.7,317.9 331,317.6C332.3,316.6 333.9,315.9 335.6,315.7L335.8,315.7C336,315.7 336.1,315.8 336.3,315.9C336.5,316.2 336.5,316.6 336.4,316.9L336.3,319C336.7,319.5 337.3,319.8 338,319.8L338.2,319.8C339.4,319.7 340.6,319.6 341.7,319.6C342.6,319.6 343.5,319.6 344.3,319.7C345,319.7 345.7,320 346.2,320.5C346.8,321 347.1,321.9 347,322.7C346.8,323.6 346.9,324.5 347.1,325.3C347.4,326.6 347.8,327.9 348.3,329.1C348.8,330.4 349.6,331.5 350.6,332.5C349.8,334.5 348.6,336.3 347.2,337.8C337.2,344.9 331.7,348.9 329.8,350.2C328.6,351.3 327,352 325.4,352L325.2,352C317.4,351.5 309.6,350.7 301.9,349.4L303.3,350.4C305.2,351.9 307.3,353.3 309.6,354.3L311.2,354.7L312,355.5C312,356.4 311.5,357.3 310.7,357.7L308.8,358.3C307.5,359.5 305.7,360.2 303.9,360.2L304,360.2L302.8,359.8L301.6,357.6C300.4,357.5 299.3,357.1 298.3,356.3C297.7,355.9 297.4,355.2 297.4,354.5C292.4,350 288.8,347.5 286.8,347L284.6,348.3C284.1,348.5 283.5,348.7 282.8,348.7C282.4,348.7 281.9,348.6 281.5,348.5C280.4,347.8 279.2,347.3 278,347C277.9,347 277.8,347 277.8,347.1L274.8,349.2C274.3,349.6 274,350.3 274,350.9C273.1,352.1 271.7,352.9 270.2,353L267.7,354.9L264,358.6C263.8,359.8 263,360.8 261.9,361.3C261.3,361.6 260.7,361.7 260.2,361.7ZM253.7,355.6L253.4,356.4L254.3,357.1C255.1,357.5 255.9,358 256.5,358.6L258.6,359.7C258.9,360 259.4,360.1 259.8,360.1L260,360.1C260.5,360 261,359.8 261.3,359.3C261.3,358.4 260.8,357.5 259.9,357.2L258,356.9L257.6,356.4L260.1,355.2C261.8,354.4 263.4,353.4 265,352.3C266.3,351.4 267.5,350.4 268.7,349.3L269.5,349.4L268,351C264.7,353.5 262.2,355.2 260.4,356.3L261.4,356.6C264.3,354.6 267,352.4 269.6,349.9C270.1,349.5 270.3,349.1 270.3,348.8C270.2,348.4 270,348.1 269.7,348C268.2,348.2 266.7,348.6 265.3,349.3C264.4,349.8 263.3,350.1 262.2,350.1C261.8,350.1 261.4,350.1 261,350L260.7,351.6C260.8,352.3 260.4,352.9 259.7,353.1L256.6,355L257,356.6L256.2,356.6L253.7,355.6ZM306.7,356.2C306,356.3 305.3,356.5 304.6,356.8C304.1,357 303.6,357.4 303.3,357.9L303.6,358.9L305,359.2C306.3,358.9 307.5,358.3 308.4,357.5L310.6,356.8L310.9,356.4L310,356.2L308.6,356.6L306.7,356.2ZM296.3,349.5C295.8,349.5 295.3,349.5 294.8,349.6L298.8,353C300.2,354 301.6,355.3 302.7,356.6L303.9,356.6C304.8,356.1 305.8,355.8 306.8,355.6L299.5,350.1C298.6,349.8 297.4,349.5 296.3,349.5ZM291.7,333.3L290.4,333.5L290.4,334C292,335.4 293.2,337.3 293.6,339.4C293.9,340.3 294.1,341.3 294.1,342.3C293.7,343.2 293.2,344.1 292.5,344.8L291.9,345.4L293.3,345.7C298.7,347.3 304.1,348.5 309.7,349.3C315,350 320.2,350.4 325.6,350.4L326.7,350.4C333.2,346 338.5,342.4 342.3,339.7L346.8,336.8C347.7,335.7 348.5,334.5 349,333.2C347.5,331.1 346.5,328.7 346.1,326.2C345.9,325.2 345.8,324.1 345.8,323.1C345.8,322.8 345.7,322.4 345.5,322.2C344.6,321.5 343.4,321.2 342.3,321.3L340.2,321.4L335.6,321.1C334.8,321 334.1,320.5 333.7,319.8L333.5,318.9L335.1,319.3L335.1,317.4L333.9,317.7C332.9,318 332.3,318.3 332.2,318.7C332.1,318.9 332.2,319.1 332.3,319.2C332.9,320 333.3,321 333.3,322C333.2,324.3 333,326.5 332.7,328.8C335.7,326.5 338.9,324.5 342.3,322.8C341.9,322.7 341.5,322.6 341.1,322.6L340.6,322.6C340.3,322.5 340.1,322.3 340,322.1C340,321.9 340.1,321.7 340.4,321.5L340.9,321.5C342.1,321.5 343.2,321.6 344.4,321.9C344.8,322 345,322.2 345,322.3C345,322.5 344.8,322.8 344.2,323.1C340,325.1 336.1,327.5 332.4,330.4C329.5,333.1 326.3,335.5 322.9,337.4C322.1,337.6 321.3,337.7 320.5,337.7C320.1,337.7 319.6,337.7 319.2,337.6C317.5,337.4 314.8,337 311.1,336.4C307.3,335.8 304,335.2 301.2,334.5C298.1,333.9 294.9,333.5 291.7,333.3ZM280.8,345.2L279.3,346L282.3,347.4L282.8,347.4C283.6,347.4 284.4,347.1 285,346.5L286.9,345.3L289.2,342.4L289.6,343.8C289.7,343.9 289.8,343.9 289.9,343.9C290.4,343.9 291,343.3 291.9,342.2C292.2,341.1 292.1,339.9 291.8,338.9C290.5,336.5 288.8,334.3 286.9,332.5L286.3,331.9L285.2,332.4L283.1,331.5C282.3,331.2 281.5,331.1 280.7,331.1C279.7,331.1 278.8,331.3 277.9,331.7C278.6,331.6 279.4,331.6 280.1,331.6C281.2,331.6 281.7,331.8 281.8,332.1C282.6,333.5 283.3,335.1 283.9,336.7C284.7,338.6 285.1,340.6 285,342.7L282.3,345.3C281.8,345.9 281.4,346.2 281.3,346.2L281.2,346.2C281.2,346.1 281.2,345.9 281.3,345.7L280.8,345.2ZM308.6,333.2L305.6,334.2C308.9,334.8 311.3,335.3 312.8,335.5C312.1,334.5 311.6,333.4 311.3,332.2C311.1,333 310.4,333.5 309.6,333.4C309.3,333.3 308.9,333.3 308.6,333.2ZM253.4,331.6L252.2,335L257.4,334.1L253.4,331.6ZM247.3,323.6C247.6,323.6 247.9,323.7 248.2,324L249.3,325.4L255.2,329.3L261.7,333.2L265.5,332.5C264.4,331.8 263.1,330.9 261.6,329.7C261.4,328.9 260.9,328.3 260.3,327.8L259.3,328.1L259.7,330.2L258.1,329.9C258,328.9 257.3,328 256.4,327.6C255.3,326.9 254,326 251.9,324.6C250,323.3 248.3,321.8 246.7,320C245.6,319 244.7,317.7 244,316.4C243.9,315.8 243.5,315.2 243,314.8C242.6,314.5 242.4,313.9 242.5,313.4L242.7,312.4L243.2,309.1L242.4,308.7L241.9,310.3C241.8,310.6 241.7,310.7 241.6,310.7C241.3,310.7 240.8,310.2 240.2,309.1C238.6,306.6 236.9,304.2 235,301.9L232.2,298.6L231.9,299.5C233.3,301.5 234.4,303.3 235.4,304.9C236.4,306.5 237.2,307.9 237.8,309C238.8,310.7 239.9,312.3 241,313.9L242.8,317.5L246,320.5L246.1,322.5C245.7,321.5 245.1,320.6 244.4,319.9C244.2,319.7 243.9,319.6 243.7,319.6C243.5,319.6 243.3,319.7 243.2,319.8C242.9,320.1 242.5,320.3 242.1,320.3C241.2,320.3 240.2,319.4 239,317.7C238,316.3 237,314.7 236.2,313.1C236.3,312.2 236.8,311.3 237.6,310.9L236.9,310.1L236,310.9L232.1,305.3L232.6,304.5L232.1,303.7L231.5,304.1L230.5,302.3L230.2,303.2L230.7,304.4L230,304.7C229.9,304.7 229.8,304.7 229.7,304.6C229.4,304.3 229.5,303.3 229.9,301.6C230.9,298.7 232.4,294.8 234.5,290.1C234.5,288.6 234.7,287 234.9,285.5C232.6,289.5 230.8,293.7 229.5,298.1C229,299.9 228.7,301.6 228.4,303.4C228.3,303.7 228.3,304.1 228.4,304.4C228.4,304.5 228.5,304.7 228.5,304.8C228.5,304.9 228.6,305 228.6,305.2C228.7,305.3 228.8,305.4 228.9,305.4C229,305.5 229.1,305.5 229.2,305.6C229.3,305.6 229.5,305.7 229.6,305.7C229.7,305.7 229.8,305.8 229.9,305.8L230.1,305.8C230.2,305.8 230.4,305.7 230.5,305.7C230.7,305.7 230.9,305.7 231.1,305.8L234.2,311.4C233.9,311.6 233.6,311.8 233.3,311.8C232.5,311.7 231.8,311.4 231.2,310.9C229.9,309.8 228.8,308.3 228.1,306.7C227.4,305.4 226.8,304 226.3,302.7C225.8,301.4 225.3,299.8 224.9,298.1C224.4,296.3 223.1,292.7 221,286.9C219.8,283.1 218.1,279.4 216,275.9C215.4,274.9 214.6,274 213.6,273.5L213.4,273.5C213,273.5 212.6,273.9 212.4,274.6C212.2,276 212.2,277.4 212.3,278.8C212.3,280.7 212.5,282.5 212.8,284.3C213.6,288.1 214.9,291.8 216.6,295.3C219,300 222.1,304.4 225.8,308.2C224,305 222.1,301.4 220.2,297.6C218.5,294 217,290.4 215.7,286.6C215.1,285 214.7,283.4 214.4,281.8L214.4,281.3C214.5,281.3 214.6,281.5 214.7,281.9C215,282.7 215.6,284.4 216.5,287.2C218.6,292.3 221,297.4 223.6,302.2C225,305.3 226.7,308.3 228.8,311.1C229.7,312.2 231.1,313 232.5,313.4L232.9,313.4C233.4,313.4 233.9,313.3 234.3,313L235.2,313.7L237.9,318.3L240.7,321.7C241.4,322.6 242.5,323.2 243.6,323.2C244.2,323.2 244.8,323 245.4,322.7C245.7,323.4 246,323.8 246.5,323.8C246.6,323.8 246.7,323.8 246.9,323.7C246.9,323.7 247.1,323.6 247.3,323.6ZM300.9,331L297.9,332.5L300.7,332.9C300.9,332.8 301,332.8 301.2,332.8C301.4,332.8 301.5,332.7 301.7,332.7L301.7,332.9L302.1,332.9L302.1,332.5C303.6,332.1 304.9,331.2 305.8,329.9C306.1,328.7 306.2,327.9 306,327.6C305.9,327.5 305.9,327.5 305.8,327.5L305.4,327.5C304.4,327.5 303.5,327.8 302.8,328.4C301.9,328.9 301.5,329.9 301.8,330.8L302.2,332.2L301.8,332.4L300.9,331ZM283.8,329.7C284.4,329.7 285,329.8 285.5,330.1C286.5,330.9 287.5,331.8 288.4,332.8L291.7,332.8C292.6,330.7 294.2,329 296.1,327.7C299.9,325.6 303.8,323.7 307.9,322L308.1,322C308.3,322 308.5,322.1 308.6,322.3C309.2,322.7 309.6,323.3 310,323.9C311.5,323.2 312.6,322 313.3,320.6C314.1,318.9 315.2,317.3 316.5,316.1C317.9,315.1 318.7,313.4 318.6,311.7L318.3,308.5C318.7,307.8 319.3,307.1 319.9,306.5C320.1,306.4 320.3,306.3 320.4,306.3C320.9,306.3 321.3,306.4 321.8,306.6C322,306.7 322.1,306.7 322.2,306.8C322.3,306.9 322.5,306.9 322.6,307C322.6,307 323.1,306.2 323.7,305.2C323.6,305.3 323.6,305.4 323.5,305.5L323.3,305.8L318.7,303.7C317.3,305.3 315.8,306.8 314.2,308.1L316.3,312.7L316,313C315.1,313.7 311.6,316.3 310.7,316.8L310.4,317L306.6,313.6C304.8,314.7 302.9,315.6 301,316.5L301.6,321.5L301.2,321.6C300.2,322 296.1,323.3 295,323.6L294.6,323.7L292.1,319.3C290.1,319.8 288,320.1 285.9,320.3L284.9,325.3L277.6,325.3L276.6,320.3C274.5,320.1 272.4,319.8 270.4,319.3L267.9,323.7L267.5,323.6C266.5,323.3 262.3,322 261.3,321.6L260.9,321.5L261.5,316.4C259.6,315.6 257.7,314.6 255.9,313.6L252.2,317L251.9,316.8C250.9,316.2 247.4,313.6 246.6,313L246.3,312.8L248.4,308.2C246.8,306.8 245.3,305.3 243.9,303.8L239.4,305.8C240,306.7 240.7,307.6 241.4,308.5C241.7,307.3 242,307.1 242.2,307.1L242.3,307.1C243.2,307.3 244,307.7 244.6,308.3C244.8,308.6 244.8,308.9 244.8,309.2L244.4,311.9C244.2,314.2 245.1,316.5 246.8,318.1L249.5,321.1C250.6,322.4 251.9,323.5 253.4,324.4C253.8,323.5 254.4,322.7 255.3,322.2C255.4,322.2 255.5,322.1 255.6,322.1C257,322.1 261.7,323.8 269.5,327.1L273.7,331.7C274,331.8 274.3,331.8 274.6,331.8C275.1,331.8 275.6,331.7 276,331.5C277.1,330.7 278.4,330.3 279.8,330.3C280.3,330.3 280.8,330.4 281.4,330.5C282.1,329.9 282.9,329.7 283.8,329.7ZM256.7,323.6C257.3,323.6 257.9,323.8 258.5,324.2C259.3,324.7 259.9,325.2 260.5,325.9C261.6,327.2 262.6,328.4 263.8,329.8L267.5,332.4C269.1,332.4 270.7,332.3 272.1,332.1C271.2,330.7 270.1,329.5 268.9,328.3L261.9,325.6L257.8,323.6C257.5,323.4 257.1,323.3 256.7,323.3C256.4,323.3 256.2,323.3 256,323.4C255.4,323.8 255,324.5 254.9,325.2L255.1,325.4C255.3,324.7 255.8,324.1 256.4,323.7C256.4,323.6 256.6,323.6 256.7,323.6ZM307.4,323.5L307.2,323.5C303.9,324.6 300.6,326 297.5,327.7C296.5,328.3 295.6,329 294.8,329.8L293.4,331.7L296.1,331.9C297.1,331.4 298.3,330.8 299.5,330.1C300,329.8 300.3,329.4 300.4,328.8C300.6,327.7 301.4,326.8 302.5,326.5C303.4,326 304.5,325.8 305.5,325.8L305.8,325.8C306.5,325.8 307.1,325.6 307.6,325.2L308.5,324.6L307.8,323.7C307.8,323.6 307.6,323.5 307.4,323.5ZM284.2,330.8L286.1,331.7L286.2,331.8L286.3,331.8L286.1,331.7L285.2,330.9L284.2,330.8ZM319.6,309.6L319.9,311.7L319.8,313.8C319.4,315.1 318.8,316.3 317.8,317.3C316.8,318.4 315.9,319.6 315.2,320.9C314.6,322.6 312.3,324.5 308.3,326.6L307.3,327.5C307.3,328.5 307.2,329.5 306.9,330.4L309.7,329.2L315.5,325.7L315.8,323.6C316.4,324.2 317.2,324.5 318,324.5C318.4,324.5 318.8,324.4 319.1,324.3C320.1,323.9 321,323.2 321.5,322.2C322.5,320.7 323.7,319.3 324.9,318C326.2,316.5 327.8,315.2 329.5,314.2C329.1,312.8 329.5,311.3 330.6,310.3L333.4,307.7C332.6,306 333.1,303.9 334.5,302.7C334,301.4 334.1,299.9 334.6,298.7C332.2,303.9 330.8,306.9 330.2,307.9C329.7,308.9 329.3,309.3 328.9,309.3L328.8,309.3C328.3,308.5 328.1,307.5 328.4,306.5L327.5,308.1L327.6,311.1C323.5,316.4 320.8,319.4 319.5,320C318.8,320.3 318.1,320.7 317.6,321.3C317.4,321.4 317.2,321.4 317,321.5C316.9,321.5 316.8,321.5 316.8,321.4C316.7,321.3 316.8,321.1 317,320.7C317.6,320.1 318.3,319.6 319.1,319.3C320.3,318.4 321.3,317.2 321.9,315.9C323.5,312.2 325.5,308.7 327.8,305.4C329.7,302.4 331.9,299.5 334.2,296.7L334.3,294.6C333.2,295.7 331.9,297.1 330.4,298.8C328.8,300.5 327.4,302.3 326,304.2C324.6,306.2 323.3,308.3 322.1,310.4C321.9,310.6 321.6,310.7 321.3,310.7C320.6,310.6 320,310.2 319.6,309.6ZM270,318.2L270.4,318.3C272.6,318.8 274.9,319.2 277.2,319.3L277.6,319.3L278.6,324.3L284.2,324.3L285.2,319.4L285.6,319.4C287.9,319.2 290.2,318.8 292.4,318.3L292.8,318.2L295.3,322.6C296.6,322.2 299.5,321.3 300.7,320.8L300.1,315.8L300.4,315.7C302.5,314.8 304.6,313.7 306.5,312.6L306.8,312.4L310.5,315.8C311.6,315 314.1,313.2 315.1,312.5L313,307.9L313.3,307.7C315.1,306.2 316.7,304.6 318.2,302.8L318.4,302.5L323,304.6C323.5,303.9 324.6,302.4 325.5,301.1C325.3,300.7 325.2,300.3 325.2,299.9C324.6,299.3 324.1,298.8 323.5,298.3C321.4,296.4 319.6,294.7 320,292.6C319.5,291.8 319.2,290.9 319.1,289.9C319.1,289 319.7,288.1 320.5,287.8C320.8,287.7 321,287.7 321.3,287.7C321.9,287.7 322.5,288 323,288.4C322.6,286.8 321.9,285.3 321,284L321,283.9C320.6,283.3 320.2,282.6 319.9,282C318.1,288 315,293.4 310.8,298L310.3,298.6L298,280L304.4,301.5L304.9,303.1L303.5,302.2L284.8,289.3L298.5,307.1L297.8,307.4C292.6,309.7 287,310.9 281.3,310.9L281.2,310.9C275.4,310.9 269.7,309.6 264.5,307.2L263.8,306.9L277.7,289.4L259.2,302.2L257.8,303.1L258.3,301.5L264.8,279.7L252.1,298.3L251.6,297.7C248.7,294.4 246.3,290.7 244.5,286.7C244.3,287.8 243.9,288.9 243.2,289.8C243.1,289.9 242.9,290.1 242.9,290.3C242.8,293.1 242.4,295.8 241.6,298.4C241.1,300.3 240.3,302.2 239.2,303.9L239.6,304.4L239.7,304.6L244.3,302.5L244.5,302.8C246,304.5 247.7,306.1 249.4,307.7L249.7,307.9L247.6,312.5C248.6,313.3 251,315 252.2,315.8L255.9,312.4L256.2,312.6C258.2,313.8 260.2,314.8 262.4,315.7L262.7,315.8L262.1,320.8C263.4,321.2 266.2,322.2 267.5,322.6L270,318.2ZM238.5,312.2L237.6,313.4L239.1,315.4L240.5,317.2C241,318 241.7,318.6 242.6,319L242.2,317.7L240.9,315.4L238.5,312.2ZM344.2,301.9C344.3,301.9 344.4,301.9 344.4,302C344.4,302.1 344.2,302.3 343.7,302.6C342.5,303.1 341.4,303.8 340.5,304.7C339.3,308.4 336.9,311.6 333.6,313.7C335.5,313.1 337.3,312.3 339.1,311.3C339.7,311.1 340.2,310.7 340.4,310.1C340.7,309.5 340.6,308.9 340.4,308.3C342.2,306.7 343.8,305 345.4,303.1C346.2,302 346.4,300.6 345.7,299.4C345.3,298.9 346.3,297.3 348.6,294.6C349.4,293.5 349.9,292.2 350,290.9C350.3,290.1 350.3,289.2 349.9,288.5L349.6,288.5C349.1,288.5 348.7,288.3 348.4,288C347.7,286.9 347.4,285.5 347.6,284.2C347.3,282.5 346.9,281.7 346.4,281.7C346.2,281.7 346,281.8 345.9,282C345.3,283.4 344.6,284.1 343.9,284.1C343.8,284.1 343.6,284.1 343.5,284C343.2,283.9 343,283.9 342.7,283.8C342.4,283.8 342.2,283.9 342.1,284.2L342.1,284.3C342.2,285.3 342,286.3 341.5,287.1C341.3,287.3 341,287.4 340.7,287.4C340.4,287.4 340.2,287.3 340,287.2L337.8,285.8C337.5,285.7 337.1,285.6 336.8,285.6C336.5,285.6 336.3,285.7 336.1,285.9C335.8,286.3 336,287.1 336.5,288.3L338,290.3C338.4,291.3 338.4,292 338.2,292.3C338.1,292.4 338,292.5 337.8,292.5C337.5,292.4 337.3,292.4 337,292.4C336.2,292.4 335.7,292.8 335.7,293.6C335.8,295.1 336.4,296.5 337.4,297.7C337.8,298.1 338.1,298.6 338.1,299.1C338.1,299.4 337.9,299.7 337.6,299.8C337.3,299.7 336.9,299.6 336.6,299.6C336.3,299.6 335.9,299.7 335.6,299.8C335.7,300.9 336,301.9 336.5,302.8C336.6,302.9 336.6,303 336.6,303.1C336.5,303.3 336.3,303.5 335.8,303.7C335.2,303.8 334.8,304.3 334.7,304.8C335.2,307.2 334.7,309.8 333.3,311.8C334.5,310.8 335.6,309.8 336.6,308.6C337.7,307.3 338.7,305.8 339.3,304.2C338.8,303.4 338.2,302.6 337.5,302C337.2,301.7 337,301.4 337.1,301.4L337.2,301.4C337.3,301.4 337.5,301.5 337.6,301.5C338.5,302 339.2,302.8 339.8,303.6C340.8,301.4 341.7,299.1 342.2,296.7C341.5,294 340.4,291.5 338.9,289.2C338.5,288.6 338.4,288.2 338.4,288.2C338.5,288.2 338.8,288.6 339.5,289.3C340.9,291.2 341.9,293.3 342.7,295.5C343.4,293.5 343.9,291.5 344.3,289.4L343.2,285.8C343.8,286.6 344.3,287.6 344.6,288.6L345.5,285.6C345.7,285.2 345.8,284.9 345.9,284.9C345.9,285.4 345.9,286 345.8,286.5C345.2,289.3 344.5,292 343.7,294.8C345.2,293.5 346.6,292 347.6,290.2C347.9,289.9 348,289.8 348.1,289.8C348.1,289.9 347.9,290.3 347.5,290.9C346.4,292.8 345,294.6 343.3,296.1C342.9,298.5 342.1,300.9 341,303.1C341.8,303 342.9,302.4 344.2,301.9C344.1,301.9 344.1,301.9 344.2,301.9ZM281.3,286.9L281.1,287L265.7,306.4C270.6,308.5 275.8,309.7 281.2,309.6L281.3,309.6C286.6,309.6 291.7,308.5 296.6,306.5L281.5,287L281.3,286.9ZM234,304.9L233.5,305.4L236.2,309.4L236.5,308.9L234,304.9ZM239.6,272.2C239.7,272.6 239.6,273 239.5,273.3C239.1,277.9 238.9,282.2 238.8,285.9C238.7,289.7 238.6,292.6 238.5,294.8C238.4,297 238.4,299.7 238.4,303.3L238.6,303L239.5,301.1C240.9,298.2 241.7,295 241.8,291.8C242.2,287.8 242.2,283.7 241.8,279.6C241.7,276.5 241.1,273.4 240.3,270.4C239.2,270.7 238.1,273.2 236.9,278C236.1,281.5 235.6,285 235.4,288.6C235.3,292.8 235.6,297.1 236.4,301.2L237.5,302.5L237.7,295.8L237.8,290.9C237.9,284.8 238.4,278.7 239.4,272.6C239.4,272.3 239.5,272.2 239.6,272.2ZM229.2,292.3C228.4,295.5 228,298.8 228,302.1C228.2,300.5 228.5,298.9 228.9,297.4C230.4,292.9 232.3,288.5 234.7,284.4C234.9,282.6 235.2,280.9 235.6,279.2C235,280 234.3,280.9 233.7,281.8L233.8,282.1L233.4,282.3C231.5,285.4 230.1,288.8 229.2,292.3ZM325,294.6C324.7,295.1 324.4,295.6 324.1,296.1L327.5,299.8L327.3,300.1C327.2,300.3 327,300.5 326.9,300.7C327.5,300.1 328.1,299.4 328.6,298.6C328.5,298.2 328.3,297.9 328.1,297.6C327.3,296.7 326.5,295.9 325.7,295.2C325.4,295 325.2,294.8 325,294.6ZM271.3,258.9L246.7,259.5L266.3,274.5L268,275.1L267,276.6L259.9,300.3L280.2,286.2L281.3,284.8L282.4,286.2L302.8,300.3L295.8,276.8L294.7,275.2L296.4,274.6L316.1,259.5L291.6,258.9L289.7,259.4L289.6,257.5L281.4,234.2L273.2,257.5L273.1,259.4L271.3,258.9ZM234.3,293.7L232.9,297.1L234.8,299.5C234.5,297.6 234.3,295.6 234.3,293.7ZM331.2,291C331,291.6 330.8,292.2 330.6,292.9C330.4,293.6 330.1,294.2 329.7,294.8C329.4,295.8 329.4,296.8 329.7,297.8C331.1,296 332.8,294.3 334.5,292.8C334.8,290 334.8,288.4 334.4,287.9C334.3,287.8 334.2,287.8 334.1,287.8C333.5,287.8 333,288.4 332.8,289.7C332.7,290.2 332.6,290.5 332.5,290.5C332.4,290.5 332.4,290.2 332.3,289.7C332.2,290.1 332,290.5 331.9,290.7L331.8,291.1L331.2,291ZM327,290.5C326.5,291.7 325.9,292.9 325.3,294L325.6,294.2C326.7,295 327.7,295.9 328.6,296.9C328.5,294.8 328.2,292.7 327.9,290.6L327,290.5ZM320.1,267.4L296.8,275.7L296.7,275.8L296.8,276L310.5,296.7C314.6,292 317.6,286.5 319.1,280.4C318.9,280 318.8,279.5 318.7,279.1C318.6,278.2 319,277.5 319.7,277.4C320.3,274 320.4,270.7 320.1,267.4ZM321.2,288.6C320.9,288.6 320.7,288.7 320.5,288.9C320.1,289.5 320,290.3 320.3,290.9C320.6,291.5 320.9,292.1 321.4,292.7C321,294 321.5,295.5 322.8,296.1L323.1,296.4L322.9,296.2L323.1,295.9C323.5,295.2 323.9,294.5 324.3,293.8C323.7,293.2 323.2,292.6 322.7,291.9C322.5,291.7 322.4,291.5 322.5,291.5C322.7,291.6 322.9,291.6 323,291.8C323.5,292.3 324,292.9 324.5,293.3C324.8,292.7 325.1,292.1 325.4,291.4C325.3,291.1 325.3,290.9 325.3,290.6C325.6,289.3 325.8,288 325.7,286.7L325.4,286.4L325.7,286.1C325.9,284.5 325.9,282.9 325.6,281.3C325.5,280.1 325.1,279 324.5,278C324.4,277.8 324.2,277.7 324,277.7C323.5,277.7 322.7,278.2 321.7,279.3C321.4,279 321.1,278.7 320.7,278.6C320.6,279.1 320.5,279.7 320.3,280.3C320.4,280.5 320.5,280.6 320.5,280.8C321.3,281.9 322,283.1 322.7,284.3C323.1,285.1 323.4,286 323.7,286.9C324,287.8 324,288.8 323.7,289.7C323,289.2 322.1,288.7 321.2,288.6ZM245.1,275.5C245.6,275.8 245.9,276.4 245.8,276.9C245.8,279.5 245.6,282.1 245,284.6C246.6,288.9 249,292.8 252,296.3L266,275.9L266.1,275.7L265.9,275.6L242.7,267C242.5,269.2 242.5,271.3 242.6,273.5C243.1,273.3 243.7,273.2 244.2,273.2C244.5,273.2 244.7,273.2 245,273.3C245.3,273.7 245.3,274.3 245,274.7L244.5,275.7C244.7,275.6 244.9,275.5 245.1,275.5ZM328.5,290.7C328.8,291.8 329,292.8 329.2,293.9C329.5,293.4 329.8,292.9 330.1,292.4L330.8,291L328.5,290.7ZM226.9,267.3C226.5,268.2 226.1,269.1 225.7,270C225,271.7 224.5,273.5 224.3,275.4C224.6,278.1 225.4,280.7 226.5,283.1C227.2,283.6 227.4,284.6 226.9,285.3C226.8,286.3 226.9,287.4 227.3,288.4C227.6,289.6 228,290.8 228.6,291.9C228.9,290.6 229.2,289.4 229.7,288.2C229.2,286.6 228.7,285.1 228.5,284.5L228.4,284.1L232.8,281.6C232.4,279.5 232,277.5 231.8,275.4L226.8,274.4L226.8,267.5L226.9,267.3ZM325.1,276.2C325.5,276.2 325.9,276.5 326,276.9C326.1,277.5 326.3,278.1 326.5,278.7C326.8,279.8 326.9,281 326.9,282.1C326.9,283 326.9,283.9 327.1,284.8C327.2,285.1 327.2,285.4 327,285.7C326.9,286.1 326.6,286.3 326.3,286.4C326.7,286.5 326.7,286.6 326.7,286.7C326.6,287.3 326.4,287.9 326.2,288.5C325.9,289.6 325.7,290.2 325.6,290.5L325.6,291.1C325.8,290.7 326,290.3 326.2,289.8L326.3,289.5L327.7,289.6L327.7,289C327.6,288.6 327.6,288.2 327.6,287.7C327.7,287.7 327.8,288.1 328.1,288.9C328.2,289.1 328.2,289.3 328.3,289.5L331.4,289.8C331.4,289.7 331.5,289.7 331.5,289.6C331.7,289 332,288 332.3,287.1C332.2,286.9 332.1,286.7 331.9,286.5L331.7,286.5C331.3,286.5 330.9,286.7 330.7,287C330.4,287.4 329.9,287.6 329.5,287.7C329.2,287.7 328.9,286.2 328.8,283.3C328.8,282.9 328.9,282.4 329.1,282.1L329,282L329.1,281.6C329.5,279.8 329.8,278.1 330,276.3C330,276 329.9,275.6 329.9,275.2C329.8,274.6 329.6,274.1 329.3,273.6C329.1,273.2 328.9,272.9 328.6,272.6C328.6,272.6 328.5,272.5 328.4,272.5C328.2,272.5 328,272.7 327.7,273.1C327.5,273.4 327.3,273.6 327.2,273.6C327.1,273.6 327,273.5 326.9,273.3C326.6,272.8 326.3,272.4 325.8,272.2C325.7,272.1 325.5,272.1 325.3,272.1C324.9,272.1 324.5,272.4 324.1,273C323.3,274.5 322.8,276.2 322.5,277.9C322.9,277.1 323.9,276.5 325.1,276.2C325,276.2 325.1,276.2 325.1,276.2ZM242.8,281.8C243.1,284 243.2,286.1 243.2,288.2C243.5,287.3 243.7,286.2 243.9,285.2C243.5,284 243.1,282.9 242.8,281.8ZM335.9,268.9L335.9,274.5L330.9,275.5C330.9,275.8 330.8,276.1 330.8,276.3C331.2,277.9 331.2,279.5 330.7,281.1C330.6,281.4 330.4,281.6 330.2,281.9L334.3,284.2L334.2,284.6C334.1,285 333.9,285.8 333.5,286.9C333.7,286.8 333.9,286.7 334.2,286.7C334.3,286.7 334.5,286.7 334.6,286.8C334.9,285.6 335.2,284.4 336.4,284.4C336.9,284.4 337.4,284.6 337.8,284.8C338.5,282.3 339,279.8 339.3,277.2C339.3,276.3 339.4,275.4 339.6,274.5C338.8,272.8 337.8,271.2 336.6,269.8C336.3,269.4 336.1,269.2 335.9,268.9ZM231.9,283.3L229.5,284.6C229.7,285.2 229.9,286 230.2,286.7C230.7,285.6 231.3,284.4 231.9,283.3ZM329.7,282.7C329.5,283.5 329.5,284.4 329.6,285.2C329.5,285.7 329.7,286.2 330,286.7C330.4,286.4 330.9,286 331.1,285.9L331.2,285.9C331.4,285.8 331.6,285.8 331.8,285.8C332.1,285.8 332.4,285.9 332.6,286C332.7,286 332.7,286.1 332.8,286.1C333,285.5 333.1,285.1 333.2,284.8L329.7,282.7ZM340.9,274C340.6,277.8 340,281.6 339.1,285.4L340.3,286.1C340.9,283.6 341.7,279.7 342.8,274L340.9,274ZM349.4,279.5C348.9,279.7 348.3,280 347.9,280.4C348.1,280.6 348.2,280.8 348.4,281C348.3,281.4 348.4,281.8 348.6,282.1C348.7,282.4 348.9,282.7 349.2,282.9C349.3,283.4 349.3,283.8 349.3,284.3L350.2,286C350.9,285.8 351.6,285.5 352.2,285C352.6,284.6 352.7,284.1 352.6,283.6C352.4,283.2 352.2,283 351.8,282.7C352.4,282.2 352.6,281.3 352.3,280.6C352.8,279.9 353.1,279.1 353.2,278.2C353.2,277.8 353,277.4 352.6,277.2C352.4,277 352.1,276.9 351.8,276.9L351.5,276.9C352,276 352.3,275.1 352.4,274.1C352.4,273.2 352.2,272.3 351.7,271.6C351.3,271.4 350.8,271.2 350.3,271.2C349.5,271.2 348.7,271.6 348.2,272.2C347.9,272.1 347.7,272.1 347.4,272.1C346.4,272.1 345.4,272.6 344.8,273.5C344.1,276.5 343.5,279.4 343,282.2C343.1,282.3 343.3,282.3 343.4,282.3C344.1,282.3 345,281.5 346,279.9C345.6,279 345.3,278.1 345.2,277.1C345.3,276.6 345.3,276.4 345.4,276.4C345.5,276.4 345.6,276.7 345.7,277.3C345.8,278 346,278.7 346.5,279.2C347.2,277.7 348.1,276.3 349.1,274.9C349.4,274.5 349.6,274.3 349.7,274.3C349.7,274.4 349.7,274.6 349.6,274.9C348.4,276.6 347.6,278.5 347.1,280.5L347.3,280.5C347.6,280.4 347.9,280.3 348.2,280.1C348.5,279.9 349,279.7 349.4,279.5ZM243.5,279.1C243.6,279.3 243.6,279.5 243.6,279.7L243.6,279.8C243.9,280.8 244.1,281.9 244.5,282.9C244.7,281.5 244.9,280.1 245,278.7C245.1,277.8 245,277.2 244.8,277C244.7,276.9 244.7,276.9 244.6,276.9C244.3,277 244.1,277.1 243.9,277.3L243.3,278.1C243.2,278.4 243.3,278.8 243.5,279.1C243.4,279.1 243.4,279.1 243.5,279.1ZM252.1,225.8C251.6,226.1 250.9,226.6 250.2,227.1C249,229.5 247.6,231.9 246.1,234.1C247.3,241.1 237.4,254.9 232.9,258.8L233.8,259.3L233.7,259.7C233.2,261.9 232.8,264.2 232.7,266.5L232.7,266.9L227.8,267.9L227.8,273.6L232.7,274.6L232.7,275C232.9,276.9 233.1,278.8 233.5,280.6C234,279.9 234.5,279.2 235.1,278.5L235.8,277.9C236.7,273.8 237.8,270.7 240.1,269.3C240.2,269.2 240.3,269.2 240.4,269.2C240.5,269.2 240.5,269.2 240.6,269.3C240.8,269.8 241,270.2 241.1,270.7C241.1,269.1 241.2,267.6 241.4,266L241.5,265.2L262.4,273L244.5,259.4L243.2,258.4L244.9,258.4L267.6,257.9L246.1,251.5L246.5,250.8C252.3,240.7 262.1,233.7 273.5,231.4L274.3,231.3L273.4,253.6L280.8,232.4L281.3,230.8L281.9,232.4L289.5,253.8L288.9,231.4L289.7,231.6C301.1,234 310.9,241.2 316.5,251.3L316.9,252L295.5,258L317.9,258.5L319.6,258.5L318.3,259.5L300,273.2L321.2,265.7L321.3,266.5C321.7,270.2 321.6,273.8 321,277.5C321.3,277.6 321.5,277.8 321.7,277.9C321.6,275.8 322.2,273.8 323.5,272.2C323.9,271.7 324.4,271.4 325,271.4L325.3,271.4C326,271.4 326.6,271.8 326.9,272.4C327.1,271.8 327.7,271.4 328.4,271.4L328.7,271.4C329.3,271.7 329.8,272.2 330,272.8C330.2,273.3 330.3,273.9 330.4,274.5L334.9,273.6L334.9,267.9L329.9,266.9L329.9,266.5C329.7,264.2 329.4,261.9 328.8,259.7L328.7,259.3L330.8,258.1L330.8,258C329.7,257.8 328.8,257.1 328.3,256C327.7,255.2 327.2,254.4 326.8,253.8C326.6,253.5 326.4,253.2 326.3,253C324.9,251.8 323.5,250.7 321.8,249.9C321,249.7 320.3,249.2 319.9,248.4C319.5,247.6 319.6,246.7 320,246C320.3,245.7 320.7,245.6 321.2,245.5C321.1,245.2 320.9,245 320.7,244.7C319.9,243.6 318.8,241.9 319.6,240.6C319.9,240.1 320.4,239.8 320.9,239.7C320.6,239.2 320.4,238.6 320.4,238.1L318.5,239L318.3,238.7C316.8,237 315.2,235.3 313.4,233.8L313.1,233.6L315.2,229C314.5,228.4 312.9,227.2 311.6,226.3C311.3,226.3 311,226.2 310.8,226.2C310.6,226.2 310.4,226.1 310.2,226L306.9,229L306.6,228.8C304.6,227.6 302.6,226.6 300.4,225.7L300.1,225.6L300.7,220.6C299.5,220.1 296.5,219.2 295.3,218.8L292.8,223.2L292.4,223.1C290.2,222.6 287.9,222.2 285.6,222L285.2,222L284.2,217.1L278.6,217.1L277.6,222L277.2,222C274.9,222.2 272.6,222.5 270.4,223.1L270,223.2L267.4,218.8C266.2,219.2 263.3,220.1 262,220.6L262.6,225.6L262.3,225.7C260.2,226.6 258.1,227.6 256.2,228.8L255.9,229L252.1,225.8ZM243.6,273.9C243.3,274.1 242.9,274.2 242.6,274.4C242.7,275.1 242.8,275.9 242.9,276.6L244,274.9C244.2,274.4 244.3,274.1 244.2,274C244.1,273.9 244,273.8 243.9,273.9L243.6,273.9ZM227.5,225.8C227.2,225.8 226.7,226.2 226.1,226.9C221.9,231.6 219,237.2 217.3,243.2C216.3,247.4 215.7,251.6 215.4,255.9C215.3,259.1 215.5,262.2 216.1,265.3C216.6,267.5 217.2,269.6 218,271.7C218.6,273.2 219.8,274.5 221.3,275.2C221.3,274.6 221.4,273.9 221.6,273.3C221.4,273.5 221.1,273.5 220.9,273.5C220.7,273.5 220.5,273.4 220.3,273.4C219.2,272.7 218.5,271.5 218.3,270.3C217.6,267.4 217.4,264.5 217.6,261.5C218.2,249.9 220.2,241.1 223.7,235.1C224,234.6 224.2,234.4 224.3,234.4C224.2,234.9 224,235.4 223.8,235.9C221.8,241.1 220.5,246.5 220,252C219.1,256.9 218.8,261.9 219.2,266.8C220.2,261.9 221.2,257.9 222,255C222.5,252.4 223.8,247.4 226,240C226.8,237.7 227.3,235.3 227.7,232.8C228,230.6 228,228.4 227.7,226.1C227.9,225.9 227.7,225.8 227.5,225.8ZM244.4,234.7C242.2,235.3 240.3,236.6 239.1,238.5C236.2,242.5 233.5,246.7 231.2,251L227.7,259.2L224.7,266.9C224.5,267.5 224.3,268.2 224.2,268.9C224,270.7 223.2,272.3 222,273.6L222,275C223.3,273.3 224.2,271.3 224.6,269.2C225.3,267.6 226.2,266.1 227.1,264.6C228.1,262.7 229.4,260.6 230.5,258.3C231.6,256.1 235,250.8 240.9,241.9C241,241.8 241.1,241.7 241.2,241.7L241.3,241.7C241.4,241.9 241.1,242.6 240.3,243.9L237.5,249.1L231.9,258.3L232.1,258.3C236.3,254.1 239.7,249.3 242.4,243.9L242.5,243.8C243.4,242 244.1,240.2 244.6,238.2C244.8,237.1 244.8,235.9 244.4,234.7ZM338.1,270C338.7,270.9 339.6,272.2 340.7,273.7L342.8,273.6L343.1,269.5C344.3,269.3 345.3,268.3 345.5,267.1C345.7,264.1 345.4,261.1 344.7,258.2C343.1,256 341.1,254 338.9,252.4C338.5,252 338.3,251.8 338.3,251.7C338.6,251.8 338.8,251.9 339,252.1C340.9,253.3 342.6,254.6 344.2,256.1L342.9,250.9C341.2,249.5 339.7,247.8 338.5,245.9C338.2,245.4 338,245.2 338,245.1C338,245.1 338.2,245.2 338.5,245.5C339.6,247 340.9,248.3 342.4,249.3C341.8,247.4 341.1,245.5 340.4,243.5C338.8,241.5 337,239.8 334.9,238.3C334.3,237.9 334.1,237.6 334.1,237.5L334.2,237.5C334.5,237.5 334.7,237.6 334.9,237.7C336.6,238.5 338.1,239.5 339.5,240.8C338.8,238.9 338.1,237 337.3,235.1C336.4,233.8 335.3,232.6 334,231.6C333.8,231.4 333.7,231.2 333.7,231.2C333.9,231.3 334.2,231.4 334.3,231.5C335.2,232.1 336,232.8 336.7,233.6L335.6,230C335.5,229.8 335.5,229.5 335.6,229.3C335.7,229.3 335.8,229.5 336,230L337.2,232.8L339.1,237.6C339.4,236.6 339.6,235.6 339.5,234.5C339.6,233.8 339.7,233.4 339.8,233.4C339.9,233.4 339.9,233.8 340,234.6C340.1,236 340,237.4 339.7,238.8C340.6,241 341.4,243.2 342.1,245.6C343.1,244.1 343.8,242.3 344,240.5C344.1,239.8 344.2,239.4 344.3,239.4C344.4,239.9 344.4,240.4 344.3,240.9C344.2,242.8 343.6,244.7 342.7,246.3C343.5,249.3 344.1,251.9 344.8,254C345.7,253.1 346.4,252 346.7,250.8C346.9,250.4 347.1,250.3 347.2,250.3C347.2,250.4 347.2,250.7 347,251.3C346.6,252.7 346,254.1 345.1,255.3C345.6,257.3 345.9,259.3 346.2,261.4C346.4,263.1 346.4,264.9 346.3,266.6C346.9,266 347.1,265.1 347,264.3C347,263.4 347.2,262.6 347.6,261.8C348.1,260.5 348.7,259.2 349.4,258C349.9,257.1 350,256.6 349.9,256.3C349.8,256.2 349.7,256.1 349.5,256.1L349.3,256.1L347.8,256.5L347.7,256.5C347.5,256.5 347.3,256.4 347.2,256.3C347.1,256.2 347,255.9 347,255.7C347.1,254.7 347.6,253.7 348.3,253C348.9,252.5 349.4,251.8 349.5,250.9C349.5,249.8 349.1,248.7 348.6,247.7C347.7,247.9 346.9,248.3 346.3,249C346.1,249.3 346,249.4 345.9,249.4C345.8,249.4 345.8,249.3 345.7,249C345.8,248.2 346,247.5 346.5,246.9C347,246 347.2,245 347,243.9C346.6,242.4 346.1,240.9 345.3,239.5C345.6,238.2 345.6,237.4 345.3,237C345.1,236.8 344.9,236.7 344.6,236.7C344.1,236.7 343.5,236.9 343.1,237.2C343.4,235.2 343,233.2 341.9,231.4C341.4,230.3 340.8,229.7 340.2,229.7C339.8,229.7 339.4,229.9 339.2,230.3C338.1,228.5 336.7,227 335.1,225.8C334.8,225.6 334.5,225.6 334.2,225.5C333.9,225.5 333.7,225.7 333.6,225.9C333.4,226.6 333.1,227.2 332.7,227.9C332.3,229.1 332.3,230.5 332.7,231.7C331.4,232 330.9,232.7 331.2,233.6L332.1,236.3C332.7,237.1 333.2,238 333.4,239C333.6,239.9 333.5,240.9 333.1,241.8C333.8,241.3 334.6,241.1 335.4,241C335.9,241 336.4,241.2 336.7,241.6C336.9,242.3 337,243.1 336.9,243.8C336.8,245 336.7,246.2 336.8,247.4C336.7,247.8 337.2,248.2 338.3,248.5C338.7,248.6 339.1,248.9 339.3,249.2C339.4,249.5 339.4,249.9 339.2,250.1C339.1,250.2 339,250.3 338.9,250.2C338.5,250.1 338.1,249.9 337.7,249.7C337.4,249.5 337.1,249.3 336.7,249.3C336.4,249.3 336.2,249.4 336.1,249.7C335.8,250 335.7,250.4 335.8,250.8C336.2,251.8 336.9,252.7 337.8,253.2C340.9,255.3 342.5,256.6 342.5,257.1C342.5,257.2 342.4,257.3 342.4,257.3C342,257.3 341.6,257.5 341.4,257.9C341.2,258.3 341.2,258.7 341.4,259.1C341.8,259.9 342.6,260.6 343.5,261C344.6,261.7 345.2,263.1 344.8,264.4C344.9,265.6 344.2,266.8 343,267.2C342.7,266.2 342.6,265.1 342.6,264.1C342.6,263.5 342.1,263 341.5,262.8C340.7,262.4 339.6,259.8 338.3,255L336.5,254.9C338.1,260.5 339.2,263.4 339.7,263.5C340.4,263.9 340.9,264.5 341.1,265.3C341.2,266.5 341.2,267.7 341.1,268.9C341,269.5 341.1,270.2 341.5,270.8C341.8,271.1 342.1,271.2 342.5,271.2L342.6,271.2L341.8,272.1C341.2,271.9 340.6,271.5 340.3,271C339.8,270.3 339.5,269.4 339.5,268.6L339.5,266C339.5,265.4 339.3,265.1 338.9,265.1C338.7,265.1 338.5,265.2 338.3,265.3C338,265.5 337.7,265.6 337.3,265.6C337.1,265.6 336.8,265.5 336.6,265.4C336.3,265.1 336.2,264.8 336.1,264.5C336.2,263.7 336.4,262.9 336.8,262.1C336.9,261.5 336.9,260.9 336.7,260.3C336.4,260 336,259.9 335.6,259.9C335.4,259.9 335.2,259.9 335.1,260L335,260C334.8,260 334.6,259.9 334.5,259.8C334.2,259.1 334.1,258.3 334.3,257.5L334.4,257L332.9,257.9C332.7,259 332.8,260.1 333.3,261C334,262.5 334.8,264 335.7,265.5C336.5,267.6 337.4,269 338.1,270ZM222.1,260.9C220.6,267 220,270.4 220.3,270.9L220.6,271.6C221,269.1 221.5,265.6 222.1,260.9ZM226.7,258.7L225.3,259L224.8,261.5L224.2,264L223.8,267.4L225,263.4L226.7,258.7ZM232.2,259.5C232,259.7 231.7,259.8 231.4,259.9C230.9,260.2 230.5,260.6 230.1,261.1C228.9,263 227.9,265 226.9,267.1L231.8,266.1C232,264 232.3,261.9 232.7,259.9L232.2,259.5ZM331.1,259.2L329.9,259.9C330.4,261.9 330.7,264 330.9,266.1L334.7,266.9C333.2,264.4 332,261.9 331.1,259.2ZM290.1,232.9L290.8,257.6L290.9,257.8L291.1,257.8L314.9,251.2C309.5,241.9 300.5,235.3 290.1,232.9ZM273,232.8C262.6,235.1 253.5,241.6 248,250.7L271.7,257.7L271.9,257.7L272,257.5L273,232.8ZM331.4,251.5L330.8,251.6C330.6,252.2 330.5,252.8 330.4,253.5L331.9,257.7L332.5,257.4C332.6,257 332.8,256.6 333,256.2C332.4,254.7 331.7,252.5 331.4,251.5ZM333.8,254.6C333.8,254.8 333.8,255 333.7,255.2C334,256 334.1,256.7 334.2,257L334.3,257.3L335.2,254.2C335.4,253.7 335.3,253.2 335.1,252.7C335,252.6 334.9,252.5 334.7,252.5C334.1,252.6 333.6,252.9 333.1,253.2C333.3,253.8 333.5,254.3 333.6,254.8L333.6,254.7C333.7,254.7 333.7,254.6 333.8,254.6ZM328.5,251.9L326.4,252.2C326.9,252.7 327.4,253.3 327.9,253.9C328.3,255.2 329.2,256.2 330.4,256.7L328.7,252.2L328.5,251.9ZM230.6,249.3L229,249.7L227.2,255.3L227.9,255.4C228.6,253.3 229.5,251.3 230.6,249.3ZM225.5,247.6C224.8,249.9 224.2,252.3 223.9,254.6L226.2,248.4L225.5,247.6ZM332,250.5L332.1,250.9C332.2,251.3 332.5,252 332.9,253.1C333.1,252 333.7,251 334.5,250.2C335.3,249.6 335.6,248.7 335.5,247.7C335.4,246.8 335.4,245.8 335.5,244.9C335.7,244.3 335.6,243.6 335.1,243.1L334.9,243.1C333.7,243.1 332.2,244.3 330.3,246.8L331.2,244.4C332.1,242.5 332.3,240.4 331.8,238.4C331.3,237.7 330.7,237.2 330,236.9C329.3,237.3 328.6,238 328.2,238.7C327.7,239.2 327.4,239.5 327.1,239.5C327,239.5 326.8,239.4 326.8,239.2L327.2,236.5C327.2,235.5 326.7,234.6 325.8,234.1C324.9,233.7 323.9,233.1 322.8,232.5C322.6,233.2 322.4,233.9 322,234.6C321.6,235.2 321.4,235.9 321.3,236.6L323.1,235.8L323.3,236.1C323.5,236.3 323.7,236.6 324.1,237.2L324.3,237.3L324.3,237.5C324.3,237.6 324.3,237.6 324.4,237.7C325.5,239.1 326.7,240.9 327.1,241.5L327.3,241.8L326,243.2C326.2,244.1 326.4,244.9 326.6,245.6C327.1,243.9 327.7,242.3 328.6,240.8C328.9,240.3 329.2,239.9 329.5,239.5C329.4,239.9 329.3,240.3 329,240.6C327.9,242.5 327.2,244.6 326.9,246.8L328.7,250.8L330.2,250.6C330.8,248.8 331.8,247.2 332.9,245.7C333.2,245.3 333.4,245.1 333.4,245.1C333.3,245.4 333.2,245.7 333,245.9C332,247.3 331.2,248.8 330.6,250.5L332,250.5ZM330.2,251.7L329.5,251.8L329.9,252.7C330,252.3 330.1,252 330.2,251.7ZM322,246.6C321.1,246.6 320.6,246.9 320.5,247.4C320.4,248.2 320.7,248.9 321.4,249.2C323.2,249.8 324.9,250.8 326.3,252.1L326.2,251.8C325.8,250.9 325.5,250.1 325.1,249.3C324.4,248.9 323.7,248.6 322.9,248.4C322.4,248.2 322.2,248.1 322.2,248L322.3,248C322.5,248 322.7,248 322.9,248.1C323.6,248.3 324.2,248.6 324.9,248.9C324.4,247.8 323.8,246.7 323.1,245.7L322.9,245.4L323.9,244.3C323.4,244 323,243.7 322.5,243.4C322.1,243.1 321.9,242.9 321.9,242.9C322.1,243 322.3,243 322.4,243.2C323,243.5 323.5,243.8 324.1,244.1L325.2,242.9C324.9,241.7 324.6,240.4 324.3,239.1C323.7,238.3 323.2,237.6 322.8,237.2L321.3,237.9C321.2,238.8 321.4,239.8 322.1,240.6C321.2,240.6 320.5,240.8 320.2,241.3C319.9,241.7 320,242.5 320.5,243.5L321.2,244.5C321.7,245.2 322.1,246 322.4,246.8C322.3,246.6 322.1,246.6 322,246.6ZM326.6,250.2C326.7,250.5 326.8,250.7 327,251.1L327.6,251C327.3,250.7 327,250.5 326.6,250.2ZM324.7,244.8L324.1,245.4C324.9,246.7 325.6,248.1 326.3,249.5C326.9,249.8 327.5,250.2 328.2,250.6C327.5,248.9 326.9,247.5 326.3,246.2C325.8,245.7 325.2,245.3 324.7,244.8ZM251,217.9C250.4,217.9 249.7,218.1 249.2,218.5C245.9,221.2 243.1,224.5 241.1,228.3L236.1,237.6L230.9,246.7L230.4,248C233.2,243.8 235.2,240.6 236.2,239.1L237.6,237C241.1,231 244,226.6 246.1,223.7C247.3,222 248.6,220.3 250,218.8C250.2,218.7 250.3,218.6 250.3,218.6C250.3,218.7 250.2,219 249.9,219.4C246.8,223.9 244.5,227.4 243.1,229.7C241.7,231.9 240.4,234 239.4,235.8C241.2,234.1 243.4,233.1 245.8,232.7L249,226.5C250,224.5 250.7,222.4 251.2,220.2C251.5,219.5 251.4,218.7 251,217.9ZM325.6,243.8L325,244.5C325.4,244.8 325.8,245.1 326.2,245.4C326,245 325.8,244.4 325.6,243.8ZM241,216C241.1,216.1 241,216.4 240.8,217C239.2,219.1 237.7,221.4 236.5,223.8C234,229.2 231.3,234.5 228.2,239.6L226.6,242.2L226.3,243.6C226.6,243 227,242.5 227.4,242C227.9,241.4 229,240.1 230.9,238.1C235,232.9 238.6,227.3 241.7,221.4L245.9,210.6C246,210.2 245.9,209.8 245.6,209.5C244.2,210 243,210.9 242,212C241.4,212.6 240.4,213.8 238.9,215.7C237.1,218.1 235.6,220.7 234.3,223.4C233.3,225.4 232.4,227.5 231.5,229.6L229.9,233.7C232.6,227.9 235.9,222.3 239.7,217.1C240.4,216.4 240.8,216 241,216ZM325.5,240.5C325.7,241.1 325.8,241.6 325.9,242L326.3,241.6C326.1,241.3 325.8,240.9 325.5,240.5ZM316.1,229.2L314.2,233.5C315.8,234.9 317.3,236.4 318.6,237.9L320.2,237.2C320.2,236.6 320.4,236.1 320.6,235.5C320.9,234.7 321.1,234 321.5,233.2C320,232.6 318.5,231.7 317.3,230.6C316.9,230.2 316.5,229.7 316.1,229.2ZM322.4,230.7C324.6,231.5 326.6,232.8 328.2,234.6C328.7,235.2 328.8,236 328.5,236.7C329.1,235.9 329.6,235.5 330,235.5C330.2,235.5 330.5,235.6 330.6,235.8L330,234.1C329.9,233.4 330,232.7 330.4,232.2L330.2,231.7C328.3,230.5 326.3,229.7 324.1,229.3C322.8,229.2 321.6,228.8 320.5,228.1C320,227.8 319.7,227.6 319.7,227.5C320.1,227.6 320.5,227.7 320.9,227.9C322,228.4 323.2,228.7 324.3,228.8C326.2,229.1 328,229.7 329.6,230.6L328.6,228.3C327.8,227 326.8,225.8 325.6,224.8C324.2,224.1 322.7,223.6 321.2,223.4C320.1,223.3 319,223 318.1,222.5C317.6,222.2 317.4,222 317.4,221.9C317.4,221.9 317.5,221.8 317.6,221.8C317.8,221.8 317.9,221.8 318.1,221.9C319,222.4 320.1,222.7 321.1,222.8C322.4,223 323.7,223.3 325,223.7C324.2,222.8 323.1,221.7 322.1,220.4C320.8,218.8 319.6,217.1 318.7,215.2L318.7,215C318.8,215 319,215.3 319.3,215.8C320.7,217.8 322.2,219.8 323.9,221.6C323.7,220 323.6,218.4 323.7,216.8C323.7,216.5 323.8,216.4 323.8,216.4C323.9,216.4 324,216.9 324.1,217.7C324,219.1 324.1,220.6 324.4,222C326.2,223.7 327.9,225.5 329.4,227.4C329.3,226 329.3,224.6 329.5,223.2C329.6,222.8 329.6,222.6 329.6,222.6C329.6,222.6 329.7,222.8 329.7,223.2C329.6,225 329.8,226.8 330.2,228.6L330.9,230.1C330.9,228.8 331.3,227.5 332.1,226.5C332.3,224.6 331.7,222.8 330.5,221.4C330,219.5 329.6,218.6 329.1,218.6C328.5,219 328.1,219.5 328,220.2L326.6,219.7C325.8,215.8 324.8,213.6 323.8,213.3C323.6,213.2 323.3,213.2 323.1,213.2C322.6,213.2 322.3,213.5 322.2,214.1C321.1,213.2 319.8,212.7 318.4,212.7L317.7,212.7C316.6,213.4 316.1,214.7 316.4,216L317.2,219L316.6,219.8L315.3,220.1C315,220.2 314.8,220.5 314.8,220.7C314.8,221.2 315,221.7 315.3,222.1C316.4,223.5 317.8,224.5 319.4,225C319.8,225.3 320,225.5 319.9,225.7C319.8,225.9 319.5,226 318.8,226.1C318.2,226.1 317.6,226.3 317.2,226.6C317.1,226.8 317,227 317,227.2C317.7,229.4 319.5,231.1 321.7,231.7L322.4,230.7ZM313.3,226.6C314.2,227.2 314.9,227.8 315.5,228.2C315.2,227.7 315,227.2 314.9,226.6L314.7,226.6C314.3,226.7 313.8,226.7 313.3,226.6ZM311.3,211.9C310.6,211.9 309.9,212.3 309.7,212.9C309.5,214.1 309.9,215.2 310.8,216.1C311,216.2 311.2,216.5 311.3,216.7C311.3,217.2 311.1,217.6 310.8,217.9L309.3,218.5C309.5,220.5 311,222.2 313,222.7L312.4,223.7C311.2,224.4 311.3,224.7 311.5,225.1C311.6,225.5 312.1,225.6 314.1,225.6L315.5,225.6C315.7,225.2 316,225 316.4,224.9C315.6,224.3 314.9,223.6 314.3,222.8C313.9,221.7 313.7,220.6 313.7,219.5C313.2,219.7 312.7,219.8 312.2,219.8C311.9,219.8 311.6,219.8 311.3,219.7C310.9,219.7 310.7,219.6 310.7,219.5C310.7,219.4 310.8,219.3 311,219.2L311.4,219.2C312.8,219.2 314.1,218.7 315.1,217.8C314.3,216.7 313.5,215.7 312.5,214.8C312.1,214.4 311.9,214.1 311.9,214L312,214C312.5,214.1 312.9,214.3 313.3,214.5C314.1,215.1 314.8,215.8 315.4,216.6C315.2,215.5 315.2,214.3 315.4,213.2C315.6,211.9 316.7,211 318,211L318.4,211C318,210.8 317.6,210.6 317.1,210.6C316.1,210.6 315.2,211.4 314.4,212.9C313.4,212.4 312.4,212 311.3,211.9ZM269.6,209.1C269.8,209.1 270,209.1 270,209.2C270,209.3 269.8,209.6 269.2,209.9C263.6,213 258.3,216.6 253.3,220.5L253.3,221C255,220.2 256.7,219.4 258.3,218.6C260.6,217.5 262.8,216.4 264.6,215.5C267.3,214.1 269.8,212.4 272,210.4C273.1,209.5 273.8,208.2 273.9,206.8C273.1,206.6 272.2,206.4 271.4,206.4C270.6,206.4 269.7,206.5 268.9,206.7C263,209.5 257.6,213.3 252.8,217.8L252.7,218.8C256.6,216.2 259.8,214.1 262.7,212.2C264.9,210.9 266.7,209.8 268.3,209C268.9,209.1 269.3,209.1 269.6,209.1ZM271.1,202.2C269.3,202.2 267.5,202.5 265.8,203C261.7,204.3 257.9,206.3 254.6,209C251.2,211.8 248.2,215.1 245.6,218.7L250.7,214.1C254.3,211.3 258.1,208.7 262,206.4C263.7,205.4 265.5,204.6 267.3,204C266,205.1 264.5,206 262.9,206.7C258.1,209.7 253.5,213 249.2,216.7C249.8,216.2 250.6,215.9 251.5,215.9C251.9,215.9 252.3,216 252.7,216.1L253.9,215.3C256.8,212.8 259.9,210.6 263.2,208.7C265.3,207.4 267.6,206.4 270,205.9L271.9,203.4C272.1,203.2 272.1,202.8 272,202.6C271.9,202.3 271.6,202.1 271.3,202.1L271.1,202.2ZM305.7,214.4L305.5,216.4L308.4,217.3L309.3,217C308.5,215.6 308.1,213.9 308.2,212.3L306.7,211.7C305.2,211.7 303.8,212.2 302.6,213C302.3,213.2 302.1,213.3 301.7,213.4L301.6,213.4C301.6,213.3 301.6,213.2 301.8,213C302.9,212.2 304.2,211.6 305.5,211.3C303.6,210.7 301.8,209.9 300.1,209C298.6,209.5 297,209.8 295.4,209.8C294.9,209.8 294.4,209.8 293.9,209.7C293.5,209.7 293.2,209.5 292.9,209.4C293.2,209.3 293.4,209.2 293.7,209.2C293.9,209.2 294.1,209.2 294.3,209.3L294.7,209.3C296.3,209.3 297.8,209 299.3,208.4C298.7,207.8 298,207.4 297.3,207.1C295.7,206.4 294.1,205.9 292.4,205.5C292.1,205.4 292,205.3 292,205.2C292,205.1 292.2,205.1 292.5,205.1C294.2,205.3 295.9,205.7 297.5,206.5C298.3,206.9 299.2,207.3 300.1,207.7C299,206.7 298,205.5 297.3,204.2L297.3,203.5L297.4,203.5C297.5,203.5 297.8,203.8 298.1,204.3C298.9,205.4 299.9,206.5 300.8,207.5C302.4,209 304.3,210.1 306.3,210.6C305.2,209.4 304.5,207.8 304.2,206.2C304.2,205.7 304.2,205.5 304.3,205.5C304.4,205.5 304.5,205.9 304.7,206.6C305.5,208.3 306.5,209.8 307.7,211.2L308.9,211.7C309.5,211.2 310.3,211 311.1,211C312,211 312.9,211.4 313.6,212L313.3,209.9C313.1,209.3 312.6,208.9 312,208.9C311.5,208.9 311.1,209.1 310.7,209.4C309.5,208 308.2,206.7 306.8,205.6C305.7,204.7 304.4,203.9 303.1,203.3C302.9,203.2 302.6,203.1 302.3,203.1C301.6,203.1 301,203.5 300.8,204L299.1,203C297.9,202.3 296.5,201.8 295.1,201.6C294.8,201.6 294.6,201.7 294.6,201.9C294.4,202.6 294.5,203.3 295,203.9C294.4,203.8 293.8,203.7 293.1,203.7C292.2,203.7 291.2,203.9 290.3,204.2C289.9,204.3 289.7,204.6 289.5,204.9C289.4,205.3 289.4,205.6 289.6,206C290.3,207 291.3,207.7 292.5,208.1C291.8,208.6 291.5,209.5 291.8,210.2C292.6,211 293.8,211.5 295,211.6L297.5,211.3C297.7,211.3 297.9,211.4 298,211.6C298.1,211.8 298.1,212.2 297.8,212.7C297.7,213 297.8,213.4 297.9,213.7C298.1,213.9 298.4,214 298.6,214L299,214C299.9,215 301.1,215.5 302.4,215.5C302.8,215.5 303.2,215.4 303.6,215.3L305.7,214.4ZM318.7,348.1C318.7,347.9 318.3,347.9 318.3,347.9C317.4,347.7 316.4,347.6 315.5,347.4C314.6,347.3 313.6,347.1 312.7,346.9L312.7,346.7L312.9,346.7C313.3,346.7 313.6,346.6 313.9,346.3C314,345.8 314.1,345.3 314.3,344.8L314.9,341.3C314.9,341 314.9,340.7 315,340.5C315,340.2 315.1,339.9 315.1,339.6C314.9,339.2 314.5,339 314.1,339L314.3,338.8C314.5,338.8 314.7,338.8 314.9,338.9C315.1,338.9 315.4,339 315.6,339C316.1,339.1 316.5,339.2 317,339.2L317.3,339.2L317.1,339.6C317,339.6 316.9,339.5 316.8,339.5C316.6,339.5 316.3,339.6 316.2,339.8C316.1,340.1 316,340.4 316,340.6C316,340.9 315.9,341.2 315.8,341.5L315.2,345.2C315,346.7 315.2,347.1 316.4,347.3C316.7,347.3 316.9,347.4 317.2,347.4C317.5,347.4 317.7,347.4 318,347.3C318.6,347 319,346.4 319,345.7L319.4,345.7L318.7,348.1ZM322.1,348.1L321.9,348.1L321.9,347.9L322,347.9C322.1,347.9 322.3,347.9 322.4,347.8C322.5,347.7 322.6,347.5 322.7,347.3C322.8,346.8 322.8,346.3 322.7,345.7L322.5,342C322.5,341.7 322.4,341.3 322.4,341C322.4,340.8 322.3,340.5 322.3,340.4C322.2,340 322,340 321.8,340L321.4,340L321.4,339.6L322.9,339.6C323.1,339.6 323.3,339.6 323.5,339.5C323.8,339.4 324.1,339.4 324.4,339.4L324.4,339.8L324.2,339.8C323.9,339.8 323.6,340 323.4,340.2L323.4,341.9L323.8,345.4C323.8,346 323.8,346.6 324,347.2C324.2,347.5 324.5,347.6 324.8,347.6L325,347.6L325,347.8L323.5,347.8C323,348 322.5,348.1 322.1,348.1ZM244.8,347.9L244.8,347.7C245.2,347.6 245.5,347.4 245.7,347.1C245.7,346.8 245.6,346.6 245.6,346.3C245.5,346 245.5,345.7 245.5,345.4L244.8,342C244.8,341.7 244.7,341.4 244.7,341.2C244.6,340.9 244.6,340.7 244.6,340.4C244.5,340.2 244.3,340.1 244.2,340.1L244.1,340.1C244,340.1 243.8,340.2 243.7,340.2L243.7,339.8L243.8,339.8C244.2,339.8 244.6,339.7 245,339.6L245.2,339.6C245.6,339.6 246,339.5 246.3,339.4C246.5,339.3 246.8,339.3 247,339.3C247.4,339.3 247.7,339.4 248.1,339.6C248.6,339.9 249,340.5 249.1,341.1C249.3,342 248.9,342.9 248,343.2L248.4,343.2C248.8,343.2 249.2,343.3 249.5,343.4C250.1,343.7 250.5,344.4 250.5,345.1C250.6,345.8 250.4,346.6 249.8,347C249.3,347.4 248.7,347.6 248.1,347.6L247.9,347.6C247.5,347.6 247.1,347.7 246.8,347.8C246.5,347.8 246.2,347.9 245.8,347.9C245.4,347.8 245.1,347.9 244.8,347.9ZM246.4,343.6L246.6,345.1C246.7,345.6 246.8,346.1 247,346.6C247.1,346.8 247.3,346.9 247.4,346.9L247.5,346.9C247.6,346.9 247.8,346.8 247.9,346.8C248.2,346.8 248.6,346.7 248.8,346.4C249.1,345.9 249.2,345.4 249,344.9C248.9,344.3 248.5,343.9 248,343.6C247.8,343.5 247.5,343.5 247.3,343.5C247,343.5 246.7,343.6 246.5,343.7L246.4,343.6ZM246.7,339.8L246.3,339.8C246.1,339.8 245.9,339.9 245.7,340L245.7,340.4L246.2,343L246.6,342.8L246.8,342.8C247.1,342.8 247.4,342.6 247.6,342.4C247.9,342 248,341.5 247.9,341.1C247.7,340.2 247.3,339.8 246.7,339.8ZM251.2,346.9L251.2,346.5L251.3,346.5C251.4,346.5 251.6,346.5 251.7,346.4C251.8,346.3 251.9,346.1 251.9,345.9C251.9,345.6 251.8,345.4 251.8,345.1C251.8,344.9 251.7,344.6 251.7,344.4L251.2,340.8C251.2,340.3 251,339.8 250.8,339.3C250.6,339.1 250.4,338.9 250.1,338.9L249.9,338.9L249.9,338.7C250.3,338.5 250.8,338.5 251.3,338.5L251.5,338.5C251.7,338.5 251.9,338.5 252.1,338.4C252.3,338.3 252.5,338.3 252.7,338.3C252.9,338.2 253.2,338.1 253.5,338.1C253.8,338.1 254.1,338.2 254.4,338.3C254.9,338.6 255.3,339.1 255.4,339.7C255.5,340.6 255,341.5 254.1,341.8L254.5,341.8C254.9,341.8 255.3,341.9 255.7,342.2C256.2,342.6 256.6,343.1 256.9,343.7C256.9,344.4 256.7,345.1 256.2,345.6C255.7,346 255.2,346.2 254.5,346.2L254.3,346.2C254,346.4 253.7,346.4 253.4,346.4L253.2,346.4C252.3,346.6 251.8,346.7 251.2,346.9ZM253.8,342.4C253.5,342.4 253.3,342.4 253,342.5L252.6,342.5L252.8,344.2C252.9,344.4 253,344.6 253,344.8C253,345 253.1,345.3 253.2,345.5C253.4,345.7 253.6,345.9 253.9,345.9L254.1,345.9C254.5,345.8 254.8,345.5 255,345.1C255.2,344.7 255.2,344.3 255,344C255,343.4 254.7,342.9 254.2,342.5C254.2,342.4 254,342.4 253.8,342.4ZM252.8,338.7C252.6,338.8 252.4,338.9 252.1,338.9L252.1,339.5L252.6,341.9L252.8,341.9C253.1,341.8 253.4,341.6 253.7,341.5C254,341.1 254.1,340.5 254,340C254,339.6 253.9,339.3 253.6,339.1C253.4,338.8 253.1,338.7 252.8,338.7ZM327.7,346.8L327.5,346.6C327.9,346.3 328.1,345.7 327.9,345.2C327.9,344.3 327.7,343.5 327.5,342.7L326.5,337.5L326.9,337.5L331.9,341.9C332.2,342.3 332.6,342.6 333.1,342.9C333.3,342.9 333.4,343 333.6,343C333.8,343 333.9,343 334.1,342.9L334.3,343.1C333.8,343.3 333.4,343.6 332.9,343.9C332.4,344.1 332,344.3 331.5,344.7L331.3,344.3C331.5,344.3 331.6,344.2 331.8,344.1C331.9,343.9 331.9,343.7 331.9,343.6C331.7,343.3 331.4,343 331.1,342.8L330.2,342L327.9,343.2L328.1,343.6C328.1,344.3 328.3,344.9 328.5,345.5C328.6,345.6 328.7,345.7 328.9,345.7C329.1,345.7 329.3,345.6 329.5,345.5L329.7,345.7C329.5,345.8 329.4,345.9 329.2,346C329.1,346.1 328.9,346.2 328.7,346.3C328.3,346.4 328,346.6 327.7,346.8ZM327.3,339.3L327.9,342.6L329.8,341.6L327.3,339.3ZM312,346.8C311.8,346.8 311.6,346.8 311.4,346.7C311.1,346.6 310.8,346.6 310.5,346.6C310.1,346.5 309.7,346.4 309.3,346.4L309,346.4L309.2,346L309.6,346C309.8,346 309.9,345.9 309.9,345.8L309.9,344.6L309.7,343.3L307,343L306.8,343.4C306.7,343.6 306.5,344 306.4,344.3C306.3,344.6 306.1,344.9 306,345.1C306.1,345.5 306.4,345.8 306.8,345.9L306.8,346.1C306.6,346.1 306.4,346.1 306.2,346C306,345.9 305.8,345.9 305.6,345.9C305.4,345.9 305.2,345.9 305,345.8C304.8,345.7 304.6,345.7 304.4,345.7L304.6,345.5C305.1,345.5 305.6,345.2 305.8,344.7C306.2,343.9 306.6,343.1 307,342.4L309.3,337.8L309.7,338L310.9,344.6C311,344.9 311.1,345.1 311.1,345.4C311.1,345.7 311.2,345.9 311.3,346.1C311.4,346.4 311.7,346.6 312.1,346.7L312,346.8ZM308.9,339.5L307.4,342.6L309.5,343L308.9,339.5ZM236.2,346.2L235.8,346L237.2,338.9C237.5,338.3 237.4,337.5 236.9,337L237.1,336.8C237.3,336.9 237.5,337 237.7,337.2C237.9,337.3 238.1,337.5 238.3,337.6C238.7,337.9 239.2,338.1 239.7,338.3L239.5,338.5C239.4,338.4 239.2,338.3 239,338.3C238.8,338.3 238.6,338.4 238.5,338.5C238.4,338.8 238.1,339.7 237.9,340.5C237.8,340.9 237.7,341.3 237.6,341.5L237,344.8L239.4,342.7C240.1,342 240.8,341.3 241.4,340.4C241.5,340.3 241.6,340 241.5,339.9C241.5,339.7 241.3,339.6 241.1,339.5L241.1,339.1C241.3,339.3 241.5,339.4 241.8,339.6C241.9,339.7 242,339.7 242.1,339.8C242.5,339.9 242.8,340.1 243.1,340.3L243.1,340.5C243,340.4 242.8,340.4 242.6,340.4C242.1,340.4 241.7,340.8 241.2,341.2C241,341.3 240.9,341.5 240.7,341.6L236.2,346.2ZM257.3,345.6L257.3,345.4C257.4,345.4 257.5,345.3 257.6,345.3C257.9,345.2 258.1,345.1 258.1,344.8C258.2,344.2 258.2,343.7 258.1,343.1L257.4,339.7C257.4,339.4 257.3,339.1 257.3,338.9C257.2,338.6 257.2,338.4 257.2,338.1C257.1,337.9 256.9,337.8 256.8,337.8L256.7,337.8C256.6,337.8 256.4,337.8 256.3,337.9L256.1,337.5L256.3,337.5C256.8,337.5 257.2,337.4 257.6,337.3L257.8,337.3C258.2,337.3 258.7,337.2 259.1,337.1L259.3,337.5L259.1,337.5C258.8,337.5 258.5,337.7 258.3,337.9C258.3,338.2 258.4,338.4 258.4,338.7C258.5,339 258.5,339.3 258.5,339.6L259,343.2C259.2,344.5 259.5,344.9 260.3,344.9C260.5,344.9 260.7,344.9 260.9,344.8C261.4,344.7 261.8,344.5 262.2,344.2C262.5,343.8 262.6,343.2 262.5,342.7L262.9,342.5L263.1,344.8L262.5,344.8C261.6,344.9 260.6,345.1 259.7,345.3C259,345.3 258.1,345.5 257.3,345.6ZM303.5,345.4C302.9,345.4 302.3,345.2 301.8,345L301.5,345C301,345 300.5,344.9 300.1,344.8L300.1,344.6C301.2,344.6 301.4,344.4 301.6,343.5L302.4,337.5L302.4,337.4C302.3,337.3 301.9,337.1 301.6,337.1C301.4,337.1 301.1,337 300.9,337C300.3,337 300,337.3 299.9,338.4L299.5,338.2L299.9,336.3L306.5,337.5L306.1,339.4L305.9,339.2C306.1,338.8 306,338.4 305.8,338C305.6,337.6 305.2,337.4 304.7,337.4L304,337.4C303.8,337.4 303.6,337.4 303.6,337.6L302.7,343.6C302.6,343.9 302.6,344.3 302.8,344.6C303,344.9 303.3,345.1 303.6,345.2L303.5,345.4ZM297.4,344.5C297.1,344.4 296.9,344.3 296.6,344.3C296.3,344.3 296.1,344.2 295.9,344.1L295.6,344.1C295.2,344.1 294.7,344 294.3,343.9L294.3,343.7L294.5,343.7C294.8,343.7 295.1,343.5 295.3,343.3C295.6,342.8 295.7,342.3 295.7,341.8L296.3,338.1C296.4,337.6 296.4,337.1 296.3,336.5C296.3,336.3 296.2,336.2 296,336.1C295.9,336 295.7,336 295.6,336L295.5,336L295.5,335.6C296,335.8 296.5,335.9 297,336C297.3,336 297.6,336 297.9,336.1C298.2,336.2 298.5,336.2 298.8,336.2L298.6,336.4L298.5,336.4C298.2,336.4 297.9,336.5 297.7,336.8C297.6,337.1 297.5,337.3 297.5,337.6C297.5,337.9 297.4,338.1 297.3,338.4L296.9,342.1C296.8,342.6 296.7,343.1 296.7,343.7C296.7,344.3 297.1,344.3 297.5,344.3L297.5,344.5L297.4,344.5ZM264.1,344.4L263.9,344.4L263.9,344.2C264.1,344.2 264.3,344.2 264.4,344.1C264.6,344 264.6,343.8 264.6,343.6C264.7,343.1 264.7,342.6 264.6,342.1L263.9,338.5C263.9,338.2 263.8,338 263.8,337.7C263.7,337.5 263.7,337.2 263.7,337C263.5,336.8 263.2,336.6 262.8,336.6L262.7,336.6L262.5,336.4C263,336.3 263.5,336.2 263.9,336.2L264,336.2C264.3,336.2 264.6,336.1 264.9,336.1C265.1,336 265.3,336 265.5,336L265.5,336.2C265.2,336.3 264.9,336.5 264.7,336.8C264.7,337.3 264.8,337.8 264.9,338.3L265.4,341.9C265.4,342.4 265.6,342.9 265.8,343.4C266,343.6 266.3,343.8 266.5,343.8L266.7,343.8L266.7,344.2L265.2,344.2C265,344.3 264.6,344.3 264.1,344.4ZM270.3,343.4C269.5,343.4 268.6,343.1 268,342.6C267.2,341.9 266.7,341 266.6,339.9C266.3,338.9 266.5,337.8 267,336.9C267.5,336 268.4,335.4 269.5,335.1C269.8,335 270,335 270.3,335C270.8,335 271.4,335.1 271.8,335.4L271.8,334.8L272,334.8L272.5,337.3L272.3,337.3C272.1,336.1 271.1,335.3 269.9,335.3L269.8,335.3C269.3,335.3 268.8,335.6 268.5,336C267.9,337.1 267.7,338.4 268,339.7C268.4,341.2 269,343.2 270.8,343.2L271.1,343.2C272.3,342.7 273,341.4 272.7,340.1L272.9,339.9L273.4,342.7L273,342.1C272.5,342.7 271.7,343.2 270.9,343.3C270.7,343.4 270.5,343.4 270.3,343.4ZM230.7,342.9C230.3,342.6 229.8,342.3 229.3,342C229.1,341.9 228.9,341.8 228.7,341.6C228.5,341.5 228.3,341.3 228.1,341.3L228.1,340.9C228.2,340.9 228.3,341 228.4,341C228.5,341.1 228.7,341.2 228.9,341.2C229,341.2 229.1,341.1 229.1,341C229.6,340.6 229.9,340.1 230.2,339.6L232,336.6C232.3,336.1 232.6,335.6 232.9,335.2C233.1,334.6 232.7,334.4 232.3,334.3L232.5,334.1C232.7,334.3 233,334.4 233.2,334.6C233.5,334.7 233.7,334.9 233.9,335C234.1,335.1 234.3,335.2 234.5,335.4C234.7,335.5 234.9,335.7 235.1,335.8C235.7,336 236.1,336.5 236.3,337.1C236.5,337.7 236.4,338.3 236,338.9C235.7,339.5 235.1,339.9 234.4,340L234,340C233.4,340 232.9,339.8 232.5,339.4C232.3,339.3 232.1,339.2 231.9,339L231,340.2C230.7,340.7 230.5,341.2 230.3,341.8C230.2,342.1 230.4,342.3 230.7,342.5C230.8,342.6 230.9,342.6 230.9,342.7L230.7,342.9ZM234.1,335.7C234,335.7 233.9,335.9 233.7,336.2L232.3,338.6C232.4,338.8 232.5,338.9 232.7,339C232.9,339.2 233.2,339.3 233.5,339.3C233.6,339.3 233.8,339.3 233.9,339.2C234.3,339.1 234.7,338.7 234.8,338.3C235.1,338 235.3,337.5 235.2,337.1C235.1,336.6 234.9,336.2 234.4,336C234.3,335.8 234.2,335.7 234.1,335.7ZM274,342.6L273.9,342.6L273.9,342.4C274.4,342.3 274.7,341.9 274.8,341.4C274.9,341 274.9,340.6 274.9,340.2C274.9,339.8 275,339.4 275.1,339L275.9,333.9L276.3,333.9L279.3,339.7C279.4,339.9 279.5,340.1 279.7,340.4C279.8,340.6 280,340.9 280.1,341C280.3,341.1 280.6,341.2 280.8,341.2L281,341.2L281,341.6C280.6,341.6 280.2,341.7 279.8,341.8C279.5,341.8 279.2,341.9 278.9,341.9C278.7,341.9 278.5,342 278.3,342L278.3,341.8C278.4,341.7 278.4,341.7 278.5,341.7C278.7,341.6 279,341.5 278.8,341.1C278.8,341 278.8,340.8 278.7,340.7C278.7,340.6 278.6,340.5 278.6,340.3L277.8,339L275.3,339.5L275.3,339.9C275.2,340.5 275.1,341.2 275.2,341.8C275.2,342.2 275.4,342.2 275.6,342.2L276.1,342.2L276.1,342.6L274.9,342.6C274.7,342.5 274.3,342.6 274,342.6ZM276.2,335.5L275.7,338.8L277.8,338.6L276.2,335.5ZM335.1,342.4L334.9,342.2C335.3,342 335.5,341.5 335.3,341C335,340.5 334.7,340 334.3,339.6L331.6,335.7C331.4,335.6 331.2,335.6 331.1,335.6C330.8,335.6 330.5,335.7 330.3,335.9L330.1,335.5C330.4,335.4 330.7,335.2 330.9,334.9C331.2,334.9 331.5,334.7 331.7,334.5L339.2,337L337.1,334.1C336.9,333.9 336.7,333.6 336.5,333.3C336.3,333 336.1,332.8 335.9,332.5C335.7,332.4 335.5,332.3 335.2,332.3C334.9,332.3 334.7,332.4 334.5,332.5L334.3,332.3L334.7,332.1L334.8,332.1C335,332 335.3,331.9 335.5,331.7C335.6,331.3 335.9,331.1 336.3,330.9L336.5,331.1C336.4,331.2 336.4,331.3 336.3,331.4C336.1,331.5 336,331.8 336.1,332.1C336.4,332.5 336.6,332.9 336.9,333.3C337.1,333.5 337.3,333.8 337.4,334L340.5,338.3L340.3,338.5C339.9,338.5 339.5,338.3 339.1,338.1L332.1,335.8L334.6,339.3C334.9,339.8 335.3,340.2 335.8,340.7C335.9,340.7 336.1,340.8 336.2,340.8C336.5,340.8 336.7,340.7 337,340.5L337,340.7C336.8,341.1 336.4,341.3 336.1,341.5C335.7,341.8 335.4,342.1 335.1,342.4ZM227.5,340.8L222.6,337.6L222.8,337.4C223,337.5 223.2,337.6 223.4,337.6C223.5,337.6 223.7,337.6 223.8,337.5C223.9,337.4 224,337.3 224.1,337.1L224.1,337C224.3,336.7 224.6,336.3 224.9,336L226.7,333.2C227,332.7 227.2,332.2 227.6,331.8C227.8,331.2 227.3,331 227,330.9L227.4,330.7L231.6,333.4L230.5,335L230.3,334.8C231,333.6 230.6,333.2 229.6,332.5L229,332.1C228.9,332 228.9,332 228.8,332C228.7,332 228.6,332.1 228.4,332.4L226.8,335C227.1,335.3 227.4,335.5 227.8,335.5L228,335.5C228.5,335.4 228.9,335.1 229.1,334.7L229.3,334.7C229.1,335 229,335.2 228.8,335.5C228.7,335.7 228.5,335.9 228.4,336.1C228.1,336.6 227.9,337.1 227.5,337.5L227.3,337.3C227.6,337 227.7,336.5 227.6,336.1C227.5,335.7 227.2,335.5 226.6,335.2L225.5,337C225.2,337.4 225.1,337.8 225,338.2C225,338.7 225.4,339.1 225.8,339.3C226.1,339.6 226.5,339.7 226.9,339.7L227.1,339.7C227.6,339.6 228,339.4 228.3,339L228.5,339L227.5,340.8ZM341.3,337.9L341.1,337.5C341.4,337.2 341.6,336.8 341.5,336.3C341.2,335.5 340.9,334.6 340.7,333.8L339.2,328.8L339.4,328.6L345,332.5C345.3,332.8 345.7,333.1 346.2,333.3C346.3,333.3 346.5,333.4 346.6,333.4C346.9,333.4 347.1,333.3 347.4,333.1L347.4,333.5C347,333.7 346.6,333.9 346.2,334.3C346,334.5 345.8,334.6 345.6,334.8C345.4,334.9 345.2,335.1 345,335.3L344.8,335.1C345.1,334.9 345.3,334.5 345.2,334.1C345.1,334 345,333.9 344.8,333.8C344.7,333.7 344.5,333.6 344.4,333.5L343.2,332.7L341.1,334.2L341.3,334.4C341.4,335.1 341.6,335.7 341.9,336.3C342,336.4 342.2,336.4 342.3,336.4L342.4,336.4C342.6,336.4 342.7,336.2 342.8,336.1L343,336.5C342.7,336.7 342.4,336.9 342.1,337.1C341.8,337.3 341.5,337.6 341.3,337.9ZM339.9,330.3L341.1,333.6L342.8,332.2L339.9,330.3ZM222.3,337.3C222.1,337.1 221.9,336.9 221.7,336.7C221.6,336.6 221.4,336.5 221.3,336.5C221.2,336.5 221,336.4 220.9,336.3L221,335.3L221,332.2C221.1,331.8 220.9,331.4 220.6,331.3L219.7,332.5C219.6,332.7 219.4,333 219.3,333.3C219.1,333.6 219,333.8 218.8,334.1C218.8,334.5 219.1,334.8 219.4,334.9L219.2,335.1C219,335 218.8,334.9 218.6,334.7C218.4,334.6 218.2,334.5 218,334.4C217.6,334 217.1,333.7 216.6,333.5L216.8,333.3C217,333.4 217.2,333.5 217.4,333.5C217.5,333.5 217.7,333.5 217.8,333.4C218.3,333 218.6,332.5 218.9,332L220.9,329C221.2,328.6 221.5,328.1 221.8,327.6C221.9,327.3 221.7,327.1 221.5,326.9L221.4,326.8L221.4,326.4C221.7,326.6 221.9,326.8 222.2,326.9C222.4,327.1 222.7,327.3 223,327.4C223.4,327.6 223.7,327.8 224,328.1C224.6,328.3 225,328.8 225.2,329.4C225.4,330 225.3,330.6 224.9,331.2C224.6,331.7 224.2,332.1 223.6,332.2C223.4,332.2 223.3,332.3 223.1,332.3C222.7,332.3 222.3,332.2 222,332L222,335.9C221.9,336.3 222.1,336.8 222.5,337.1L222.3,337.3ZM220.9,331L221,331.1C221.4,331.4 221.8,331.7 222.3,331.7C222.7,331.7 223.1,331.4 223.6,330.8C223.9,330.5 224,330.1 224,329.7C224,329.3 223.8,328.9 223.5,328.7C223.3,328.6 223.1,328.4 222.9,328.3C222.8,328.3 222.8,328.3 222.7,328.4C222.7,328.5 222.6,328.5 222.5,328.5L220.9,331ZM350.4,283.4C349.9,283.4 349.5,283.3 349.1,283C349,282.3 348.7,281.7 348.3,281.1C348.4,280.4 348.8,279.9 349.4,279.6L349.8,279.4C350,279.3 350.2,279.3 350.4,279.3C351.3,279.3 352,279.8 352.3,280.7L352.3,280.8C351.8,281.5 351.2,282.1 350.5,282.6L350.6,282.6C351,282.6 351.4,282.7 351.7,282.9C351.5,283.1 351.3,283.2 351.1,283.3C350.9,283.3 350.7,283.4 350.4,283.4Z" style="fill:white;fill-rule:nonzero;"/>
    </g>
    <g transform="matrix(0.119608,0,0,0.119608,-19.1529,1.50488)">
        <path d="M381,322.4L381,237.6L398,237.6L422,288.4L446,237.6L463,237.6L463,322.4L453.6,322.4L453.6,247.6L452,247.6L427.4,298.4L416.9,298.4L392.3,247.6L390.6,247.6L390.6,322.4L381,322.4Z" style="fill:white;fill-rule:nonzero;stroke:white;stroke-width:3.13px;"/>
        <path d="M494,296.9C494,309.2 500.6,315.3 513.8,315.3C520.7,315.3 525.8,313.9 529.3,311C532.8,308.1 534.5,303.4 534.5,297L534.5,237.7L543.8,237.7L543.8,296.8C543.8,306.3 541.3,313.1 536.3,317.4C531.3,321.6 523.9,323.8 514.1,323.8C504.3,323.8 496.9,321.7 492,317.4C487.1,313.2 484.6,306.3 484.6,296.8L484.6,237.7L494,237.7L494,296.9Z" style="fill:white;fill-rule:nonzero;stroke:white;stroke-width:3.13px;"/>
        <path d="M574.8,289.9L574.8,322.4L565.4,322.4L565.4,237.6L596.8,237.6C605.8,237.6 612.6,239.7 617.1,243.9C621.6,248.1 623.9,254.6 623.9,263.4C623.9,276.5 618.7,284.7 608.3,288L624.6,322.4L614.2,322.4L598.8,290L574.8,289.9ZM596.9,281.6C608.4,281.6 614.2,275.6 614.2,263.8C614.2,251.9 608.4,246 596.8,246L574.9,246L574.9,281.7L596.9,281.6Z" style="fill:white;fill-rule:nonzero;stroke:white;stroke-width:3.13px;"/>
    </g>
</svg>
